<?xml version="1.0" standalone="no"?>
<!DOCTYPE svg PUBLIC "-//W3C//DTD SVG 1.1//EN" "http://www.w3.org/Graphics/SVG/1.1/DTD/svg11.dtd" >
<svg xmlns="http://www.w3.org/2000/svg" xmlns:xlink="http://www.w3.org/1999/xlink" version="1.1">
<metadata></metadata>
<defs>
<font id="praktikabold_extended" horiz-adv-x="1765" >
<font-face units-per-em="2048" ascent="1638" descent="-410" />
<missing-glyph horiz-adv-x="544" />
<glyph horiz-adv-x="0" />
<glyph horiz-adv-x="682" />
<glyph unicode=" "  horiz-adv-x="544" />
<glyph unicode="&#x09;" horiz-adv-x="544" />
<glyph unicode="&#xa0;" horiz-adv-x="544" />
<glyph unicode="!" horiz-adv-x="792" d="M215 111q0 69 42.5 103t135.5 34q185 0 185 -137q0 -144 -185 -144q-178 0 -178 144zM258 365v1013h264v-1013h-264z" />
<glyph unicode="&#x22;" horiz-adv-x="1124" d="M178 1448h264l-24 -621h-213zM631 1448h262l-23 -621h-213z" />
<glyph unicode="#" horiz-adv-x="2109" d="M80 254l51 215h252l113 412h-271l49 215h279l78 282h246l-78 -282h710l78 282h244l-78 -282h277l-52 -215h-282l-113 -412h301l-49 -215h-311l-70 -254h-244l70 254h-711l-69 -254h-246l70 254h-244zM629 469h710l113 412h-711z" />
<glyph unicode="$" horiz-adv-x="1755" d="M96 250l111 213q122 -89 287.5 -133.5t420.5 -44.5q240 0 357 41t117 116q0 63 -64 95t-215 41l-461 28q-514 33 -514 352q0 177 158 264.5t477 96.5v129h264v-131q343 -23 602 -152l-98 -213q-142 78 -315.5 114t-419.5 36q-218 0 -310 -34t-92 -105q0 -65 73.5 -101.5 t246.5 -46.5l362 -22q117 -6 203.5 -19.5t158.5 -39.5t116 -65t68 -96t24 -133q0 -89 -44 -157.5t-126.5 -113t-194 -70t-254.5 -33.5v-164h-264v164q-225 7 -384.5 51t-289.5 133z" />
<glyph unicode="%" horiz-adv-x="2426" d="M164 1044v64q0 82 38 141t107 92.5t154.5 48.5t191.5 15q109 0 196 -15t157.5 -48.5t109.5 -92.5t39 -141v-64q0 -82 -39 -141.5t-109.5 -93t-158 -49t-195.5 -15.5q-106 0 -191.5 15.5t-154.5 49t-107 93t-38 141.5zM184 0l1690 1378h350l-1673 -1378h-367zM365 1055 q0 -137 290 -137q301 0 301 137v43q0 137 -301 137q-290 0 -290 -137v-43zM1270 264v64q0 82 38 141t107 92.5t154.5 48.5t191.5 15q109 0 196 -15t157.5 -48.5t109.5 -92.5t39 -141v-64q0 -82 -39 -141.5t-109.5 -93t-158 -49t-195.5 -15.5q-106 0 -191.5 15.5t-154.5 49 t-107 93t-38 141.5zM1470 274q0 -137 291 -137q301 0 301 137v43q0 138 -301 138q-291 0 -291 -138v-43z" />
<glyph unicode="&#x26;" horiz-adv-x="1798" d="M117 383q0 278 282 332q-115 31 -181 112.5t-66 200.5q0 385 669 385q253 0 431.5 -36t349.5 -140l-93 -215q-134 82 -297.5 117t-380.5 35q-409 0 -409 -197q0 -178 315 -178h1057v-197h-168v-102q0 -107 -26 -191.5t-77.5 -142.5t-119 -98t-159 -62t-188 -31.5 t-216.5 -9.5q-360 0 -541.5 97t-181.5 321zM383 412q0 -203 442 -203q111 1 191.5 8t152.5 26t116 51.5t69.5 85.5t25.5 126v96h-643q-181 0 -267.5 -41.5t-86.5 -148.5z" />
<glyph unicode="'" horiz-adv-x="671" d="M205 1448h262l-23 -621h-213z" />
<glyph unicode="(" horiz-adv-x="1017" d="M80 649v80q0 482 227 711t688 229v-239q-120 0 -218 -23t-179.5 -75t-136 -132.5t-85 -199t-30.5 -271.5v-80q0 -160 30.5 -284.5t85 -208.5t136 -138t179.5 -78t218 -24v-242q-461 0 -688 237t-227 738z" />
<glyph unicode=")" horiz-adv-x="1017" d="M23 -84q120 0 218 24t179.5 78t136 138t85 208.5t30.5 284.5v80q0 153 -30.5 271.5t-85 199t-136 132.5t-179.5 75t-218 23v239q461 0 688 -229t227 -711v-80q0 -501 -227 -738t-688 -237v242z" />
<glyph unicode="*" horiz-adv-x="1140" d="M74 1016l63 239l363 -147l-54 371h248l-47 -369l357 145l63 -239l-385 -45l270 -285l-202 -145l-183 346l-182 -346l-203 145l273 285z" />
<glyph unicode="+" horiz-adv-x="1404" d="M66 551v186h532v402h209v-402h532v-186h-532v-399h-209v399h-532z" />
<glyph unicode="," horiz-adv-x="552" d="M-33 -385l19 160q186 -17 291.5 35.5t105.5 160.5q0 47 -27 84q-29 -75 -139 -75q-64 0 -103.5 35t-39.5 104q0 76 49.5 118t140.5 42q125 0 203 -76t78 -228q0 -185 -146 -286.5t-432 -73.5z" />
<glyph unicode="-" horiz-adv-x="1249" d="M117 494v211h1016v-211h-1016z" />
<glyph unicode="." horiz-adv-x="522" d="M80 133q0 75 46.5 115.5t131.5 40.5q87 0 135.5 -40.5t48.5 -115.5q0 -79 -48.5 -122.5t-135.5 -43.5q-85 0 -131.5 43.5t-46.5 122.5z" />
<glyph unicode="/" horiz-adv-x="866" d="M39 -301l520 1911h268l-520 -1911h-268z" />
<glyph unicode="0" horiz-adv-x="1837" d="M115 651v78q0 347 206 515.5t592 168.5q391 0 600 -168.5t209 -515.5v-78q0 -348 -209 -517t-600 -169q-386 0 -592 169t-206 517zM381 649q0 -117 39 -203t111.5 -137t167.5 -75.5t214 -24.5q122 0 218.5 24.5t170.5 75.5t114 137t40 203v82q0 117 -40 202.5t-114 136.5 t-170.5 75t-218.5 24q-119 0 -214 -24t-167.5 -75t-111.5 -136.5t-39 -202.5v-82z" />
<glyph unicode="1" horiz-adv-x="954" d="M39 1182l457 196h213v-1378h-263v1124l-315 -139z" />
<glyph unicode="2" horiz-adv-x="1679" d="M76 1075q77 120 203.5 197t270.5 109t316 32q613 0 613 -426q0 -192 -121.5 -329.5t-390.5 -266.5l-303 -153h958v-238h-1446v229l666 351q201 110 283.5 192.5t82.5 181.5q0 220 -372 220q-186 0 -345 -65.5t-253 -199.5z" />
<glyph unicode="3" horiz-adv-x="1644" d="M61 279l175 182q70 -94 148 -148t184.5 -79t262.5 -25q235 0 345 57t110 158q0 100 -88 138t-278 38h-400v199h400q315 0 315 178q0 98 -94 147.5t-271 49.5q-437 0 -608 -273l-172 156q212 356 789 356q626 0 626 -393q0 -112 -63 -190t-174 -111q284 -50 284 -303 q0 -216 -188.5 -333.5t-532.5 -117.5q-286 0 -466 74t-304 240z" />
<glyph unicode="4" horiz-adv-x="1652" d="M43 229v211l772 938h350l-768 -921h697v417h262v-417h264v-228h-264v-229h-262v229h-1051z" />
<glyph unicode="5" horiz-adv-x="1619" d="M74 209l133 207q96 -112 223.5 -161.5t337.5 -49.5q251 0 365 53.5t114 157.5q0 111 -77.5 151.5t-249.5 40.5h-734v770h1241v-237h-989v-318h529q199 0 320 -45.5t172.5 -131.5t51.5 -222q0 -233 -187.5 -346t-541.5 -113q-256 0 -418 53.5t-290 190.5z" />
<glyph unicode="6" horiz-adv-x="1753" d="M117 637v90q0 351 204.5 518.5t604.5 167.5q245 0 413.5 -62t292.5 -225l-188 -178q-117 221 -518 221q-128 0 -226 -24t-170 -76t-109.5 -137t-37.5 -203v-70q143 183 604 183q332 0 488.5 -99t156.5 -307q0 -471 -723 -471q-395 0 -593.5 162t-198.5 510zM432 438 q0 -28 14 -57t49.5 -60t87.5 -55t136 -39.5t188 -15.5q225 0 343 57.5t118 167.5q0 103 -111.5 154t-349.5 51q-217 0 -346 -52.5t-129 -150.5z" />
<glyph unicode="7" horiz-adv-x="1480" d="M14 1141v237h1395v-211l-774 -1167h-359l791 1141h-1053z" />
<glyph unicode="8" horiz-adv-x="1863" d="M127 369q0 278 326 338q-146 32 -214.5 110.5t-68.5 204.5q0 107 51 183.5t152 121.5t238 65.5t321 20.5t320.5 -20.5t237 -65.5t151.5 -121.5t51 -183.5q0 -253 -279 -315q324 -59 324 -338q0 -92 -36.5 -161.5t-102.5 -115.5t-167.5 -74.5t-222.5 -40.5t-276 -12 t-276 12t-222.5 40.5t-167.5 74.5t-102.5 115.5t-36.5 161.5zM391 414q0 -68 50.5 -111.5t171.5 -67.5t319 -24q197 0 318 24t172 67.5t51 111.5q0 67 -49 108.5t-169.5 63.5t-322.5 22t-322.5 -22t-169.5 -63.5t-49 -108.5zM434 979q0 -64 43.5 -102.5t154 -59t300.5 -20.5 q189 0 298.5 20.5t153 59t43.5 102.5q0 62 -44 102t-155.5 63t-295.5 23t-296 -23t-157 -63t-45 -102z" />
<glyph unicode="9" horiz-adv-x="1730" d="M102 252l187 176q121 -219 520 -219q541 0 541 418q0 59 -2 86q-67 -91 -219 -142t-384 -51q-332 0 -487.5 105t-155.5 325q0 463 727 463q394 0 590.5 -163t196.5 -517v-84q0 -684 -793 -684q-252 0 -425.5 62.5t-295.5 224.5zM367 942q0 -109 111.5 -164t348.5 -55 q216 0 344.5 56.5t128.5 160.5q0 28 -14.5 57t-49.5 60t-86.5 55t-134.5 39.5t-184 15.5q-226 0 -345 -57.5t-119 -167.5z" />
<glyph unicode=":" horiz-adv-x="522" d="M80 195q0 75 46.5 115t131.5 40q87 0 135.5 -40.5t48.5 -114.5q0 -79 -48.5 -122.5t-135.5 -43.5q-85 0 -131.5 43.5t-46.5 122.5zM80 782q0 75 46.5 115.5t131.5 40.5q87 0 135.5 -40.5t48.5 -115.5q0 -79 -48.5 -122.5t-135.5 -43.5q-85 0 -131.5 43.5t-46.5 122.5z " />
<glyph unicode=";" horiz-adv-x="552" d="M-33 -401l19 159q186 -17 291.5 36t105.5 161q0 47 -27 84q-29 -76 -139 -76q-64 0 -103.5 35t-39.5 104q0 76 49.5 118t140.5 42q125 0 203 -75.5t78 -227.5q0 -185 -146 -286.5t-432 -73.5zM78 803q0 75 46.5 115t131.5 40q87 0 135.5 -40.5t48.5 -114.5 q0 -79 -48.5 -122.5t-135.5 -43.5q-85 0 -131.5 43.5t-46.5 122.5z" />
<glyph unicode="&#x3c;" horiz-adv-x="1312" d="M88 516v244l1086 397l53 -231l-887 -287l887 -283l-53 -233z" />
<glyph unicode="=" horiz-adv-x="1404" d="M66 338v186h1273v-186h-1273zM66 754v186h1273v-186h-1273z" />
<glyph unicode="&#x3e;" horiz-adv-x="1312" d="M86 356l887 283l-887 287l53 231l1086 -397v-244l-1086 -393z" />
<glyph unicode="?" horiz-adv-x="1679" d="M78 1092q122 164 318 242.5t444 78.5q150 0 264 -22t200 -70t130.5 -130t44.5 -196q0 -183 -108 -290t-316 -127q-58 -8 -94.5 -16t-70.5 -21.5t-51 -33t-26 -48.5t-6 -70h-256q-10 89 5.5 154.5t44.5 104.5t84.5 65t106.5 37.5t130 21.5q152 21 219 65t67 136 q0 100 -89.5 150.5t-282.5 50.5t-350.5 -63.5t-256.5 -195.5zM498 111q0 69 42.5 103t135.5 34q184 0 184 -137q0 -144 -184 -144q-178 0 -178 144z" />
<glyph unicode="@" horiz-adv-x="2318" d="M150 504v86q0 168 52 304t144.5 230t224.5 157.5t288 92.5t339 29q178 0 327.5 -27t274.5 -85.5t212 -147.5t135 -217.5t48 -290.5v-60q0 -103 -25 -183.5t-65.5 -129.5t-97 -80t-113 -43t-120.5 -12q-186 0 -267 104q-64 -51 -167 -84.5t-218 -33.5q-97 0 -176.5 18 t-147.5 58.5t-106.5 114.5t-38.5 177v45q0 80 26 143t68.5 103t102 66t122.5 36.5t134 10.5q231 0 342 -105v76h199v-350q0 -199 137 -199q83 0 131 65.5t49 188.5v74q0 268 -201 412.5t-565 144.5q-386 0 -600.5 -157t-214.5 -445v-86q0 -304 213 -464.5t629 -160.5 q171 0 376 26t297 58l13 -215q-132 -35 -315.5 -58.5t-368.5 -23.5q-196 0 -358 28.5t-297 92t-227.5 160.5t-143.5 237.5t-51 319.5zM872 498q0 -195 279 -195q188 0 289 94q-8 44 -8 111v113q-92 69 -281 75q-127 3 -203 -40.5t-76 -141.5v-16z" />
<glyph unicode="A" horiz-adv-x="1738" d="M61 0l644 1389h327l645 -1389h-293l-106 238h-819l-105 -238h-293zM553 451h631l-316 708z" />
<glyph unicode="B" horiz-adv-x="1775" d="M217 0v1378h938q201 0 305.5 -88.5t104.5 -249.5q0 -110 -54.5 -190t-144.5 -115q131 -21 213 -112.5t82 -223.5q0 -193 -118 -296t-335 -103h-991zM475 240h690q120 0 175 53.5t55 144.5q0 84 -56 131t-147 47h-717v-376zM475 801h623q86 0 144 48.5t58 135.5 q0 156 -188 156h-637v-340z" />
<glyph unicode="C" d="M127 651v78q0 347 204 515.5t589 168.5q124 0 229 -16t204.5 -53.5t181.5 -105t140 -163.5l-200 -168q-94 135 -227.5 198.5t-327.5 63.5q-119 0 -213 -24t-165.5 -75t-110 -136.5t-38.5 -202.5v-82q0 -117 38.5 -203t110 -137t165.5 -75.5t213 -24.5q206 0 340.5 66 t228.5 219l207 -158q-117 -190 -307.5 -280.5t-468.5 -90.5q-386 0 -589.5 168.5t-203.5 517.5z" />
<glyph unicode="D" horiz-adv-x="1865" d="M217 0v1378h748q375 0 575.5 -160.5t200.5 -492.5v-70q0 -172 -52 -298t-153.5 -204t-243 -115.5t-327.5 -37.5h-748zM481 244h484q255 0 382.5 94t127.5 315v74q0 215 -128.5 311.5t-381.5 96.5h-484v-891z" />
<glyph unicode="E" horiz-adv-x="1650" d="M217 0v1378h1319v-237h-1055v-332h846v-209h-846v-360h1065v-240h-1329z" />
<glyph unicode="F" horiz-adv-x="1550" d="M217 0v1378h1262v-243h-998v-371h787v-219h-787v-545h-264z" />
<glyph unicode="G" horiz-adv-x="1806" d="M127 651v78q0 347 204 515.5t589 168.5q243 0 421 -63t326 -211l-168 -209q-198 239 -579 239q-119 0 -213 -24t-165.5 -75t-110 -136.5t-38.5 -202.5v-82q0 -118 39 -203t114.5 -137t178 -76t236.5 -24q310 0 450 108v220h-672v208h938v-569q-247 -211 -751 -211 q-799 0 -799 686z" />
<glyph unicode="H" horiz-adv-x="1892" d="M217 0v1378h264v-549h928v549h266v-1378h-266v592h-928v-592h-264z" />
<glyph unicode="I" horiz-adv-x="698" d="M217 0v1378h264v-1378h-264z" />
<glyph unicode="J" horiz-adv-x="1396" d="M-20 205l153 203q78 -105 178.5 -152t261.5 -47q196 0 302 110.5t106 362.5v696h266v-694q0 -375 -167 -547t-507 -172q-190 0 -332.5 53t-260.5 187z" />
<glyph unicode="K" horiz-adv-x="1730" d="M217 0v1378h264v-700l852 698h334l-620 -526l622 -850h-330l-495 678l-363 -307v-371h-264z" />
<glyph unicode="L" horiz-adv-x="1464" d="M217 0v1378h264v-1134h912v-244h-1176z" />
<glyph unicode="M" horiz-adv-x="2256" d="M217 0v1378h281l626 -964l635 964h281v-1378h-260v940l-557 -850h-199l-547 846v-936h-260z" />
<glyph unicode="N" horiz-adv-x="1835" d="M217 0v1378h264l877 -1003v1003h260v-1378h-264l-877 1006v-1006h-260z" />
<glyph unicode="O" horiz-adv-x="1902" d="M127 651v78q0 347 211.5 515.5t607.5 168.5q400 0 615 -168.5t215 -515.5v-78q0 -348 -215 -517t-615 -169q-396 0 -607.5 169t-211.5 517zM393 649q0 -117 40.5 -203t116 -137t174 -75.5t222.5 -24.5q127 0 227 24.5t177 75.5t118 137t41 203v82q0 117 -41 202.5 t-118 136.5t-177 75t-227 24q-124 0 -222.5 -24t-174 -75t-116 -136.5t-40.5 -202.5v-82z" />
<glyph unicode="P" horiz-adv-x="1640" d="M217 0v1378h815q262 0 391 -102t129 -342q0 -227 -134.5 -350t-385.5 -123h-557v-461h-258zM475 692h541q127 0 199.5 60.5t72.5 181.5q0 116 -69 161.5t-203 45.5h-541v-449z" />
<glyph unicode="Q" horiz-adv-x="1902" d="M127 651v78q0 347 211.5 515.5t607.5 168.5q400 0 615 -168.5t215 -515.5v-78q0 -456 -373 -608l274 -141l-112 -185l-461 254q-76 -6 -158 -6q-396 0 -607.5 169t-211.5 517zM393 649q0 -117 40.5 -203t116 -137t174 -75.5t222.5 -24.5q127 0 227 24.5t177 75.5t118 137 t41 203v82q0 117 -41 202.5t-118 136.5t-177 75t-227 24q-124 0 -222.5 -24t-174 -75t-116 -136.5t-40.5 -202.5v-82z" />
<glyph unicode="R" horiz-adv-x="1693" d="M217 0v1378h854q262 0 391 -102t129 -342q0 -178 -83 -293t-242 -158l372 -483h-311l-346 461h-506v-461h-258zM475 692h576q129 0 201.5 60.5t72.5 181.5q0 116 -69.5 161.5t-204.5 45.5h-576v-449z" />
<glyph unicode="S" horiz-adv-x="1757" d="M102 211l123 217q122 -111 284 -168t406 -57q222 0 344.5 51.5t122.5 144.5q0 77 -62 113t-216 51l-442 37q-517 42 -517 395q0 418 719 418q220 0 406.5 -46t361.5 -165l-102 -221q-139 102 -305 149.5t-381 47.5q-158 0 -254 -20.5t-137 -58.5t-41 -98q0 -76 70 -114 t239 -53l356 -33q294 -21 432 -106t138 -275q0 -119 -53.5 -208t-152 -142t-226.5 -79t-287 -26q-295 0 -486.5 56t-339.5 190z" />
<glyph unicode="T" horiz-adv-x="1550" d="M57 1141v237h1436v-237h-584v-1141h-266v1141h-586z" />
<glyph unicode="U" d="M164 678v700h266v-702q0 -127 32.5 -218.5t94 -145t143.5 -78.5t189 -25q100 0 179 25t140 78.5t94 145.5t33 218v702h267v-700q0 -713 -713 -713q-725 0 -725 713z" />
<glyph unicode="V" horiz-adv-x="1738" d="M35 1378h299l536 -1110l535 1110h299l-692 -1384h-281z" />
<glyph unicode="W" horiz-adv-x="2531" d="M80 1378h301l352 -1059l367 1059h321l369 -1063l358 1063h301l-518 -1384h-278l-393 1067l-392 -1067h-274z" />
<glyph unicode="X" horiz-adv-x="1730" d="M35 0l653 692l-649 686h332l508 -553l499 553h314l-654 -700l658 -678h-334l-516 547l-496 -547h-315z" />
<glyph unicode="Y" horiz-adv-x="1691" d="M31 1378h311l506 -653l500 653h313l-680 -872v-506h-264v510z" />
<glyph unicode="Z" horiz-adv-x="1583" d="M80 1141v237h1401v-211l-944 -929h976v-238h-1388v203l954 938h-999z" />
<glyph unicode="[" horiz-adv-x="1097" d="M197 -326v1934h882v-217h-618v-1500h618v-217h-882z" />
<glyph unicode="\" horiz-adv-x="866" d="M39 1610h268l520 -1911h-268z" />
<glyph unicode="]" horiz-adv-x="1097" d="M18 -109h619v1500h-619v217h883v-1934h-883v217z" />
<glyph unicode="^" horiz-adv-x="1228" />
<glyph unicode="_" horiz-adv-x="1349" d="M86 -39h1178v-211h-1178v211z" />
<glyph unicode="a" horiz-adv-x="1415" d="M123 266q0 153 95.5 227t297.5 74h471q-14 113 -99.5 157t-240.5 44q-134 0 -225.5 -28.5t-179.5 -96.5l-99 193q195 153 553 153q99 0 177 -10.5t151 -39t121.5 -74.5t77 -121t28.5 -175v-569h-237v139q-137 -174 -504 -174q-387 0 -387 301zM387 279q0 -115 182 -115 q353 0 420 164v49h-469q-133 0 -133 -98z" />
<glyph unicode="b" horiz-adv-x="1640" d="M199 0v1530h262v-692q140 151 481 151q96 0 178 -14t156.5 -48.5t126.5 -87.5t82.5 -136t30.5 -189v-72q0 -107 -30.5 -190t-82.5 -136.5t-126.5 -88t-156.5 -48.5t-178 -14q-381 0 -514 168v-133h-229zM461 391q13 -60 50.5 -101.5t96.5 -63.5t125 -31t150 -9 q72 0 132.5 12t116.5 40.5t88.5 83.5t32.5 133v49q0 62 -22 109.5t-57.5 76.5t-85.5 47t-99.5 24.5t-105.5 6.5q-372 0 -422 -199v-178z" />
<glyph unicode="c" horiz-adv-x="1449" d="M125 442v72q0 107 33 189.5t89 135.5t136.5 87.5t170 48.5t196.5 14q179 0 311.5 -37.5t241.5 -134.5l-154 -172q-125 123 -393 123q-369 0 -369 -264v-49q0 -269 375 -269q268 0 403 138l135 -174q-97 -103 -238 -144t-337 -41q-98 0 -183 14t-163 48.5t-133 87.5 t-88 136.5t-33 190.5z" />
<glyph unicode="d" horiz-adv-x="1646" d="M125 442v72q0 106 31.5 189t85 136t129.5 87.5t159 48.5t179 14q333 0 479 -151v692h262v-1530h-221l-8 172q-141 -207 -514 -207q-105 0 -190.5 14t-160 48.5t-124.5 88t-78.5 136t-28.5 190.5zM387 455q0 -63 22 -111t57.5 -77.5t85 -48t99 -25.5t105.5 -7 q67 0 129 8.5t123.5 27t108.5 54t71 84.5v242q-20 48 -66.5 82t-108.5 51.5t-124.5 25t-132.5 7.5q-56 0 -105.5 -6.5t-99 -24.5t-85 -47t-57.5 -76.5t-22 -109.5v-49z" />
<glyph unicode="e" horiz-adv-x="1396" d="M125 430v96q0 104 33 185t88 132.5t133 85t161.5 47t180.5 13.5q65 0 123.5 -6t118.5 -21t109.5 -38.5t93.5 -60.5t74 -84t47.5 -111.5t17.5 -141.5v-155h-910q42 -185 324 -185q156 0 250 24t155 85l168 -145q-95 -98 -235 -141.5t-338 -43.5q-97 0 -180.5 13.5 t-161.5 47t-132.5 85t-87 133t-32.5 186.5zM387 535h655q-5 233 -321 233q-329 0 -334 -233z" />
<glyph unicode="f" horiz-adv-x="1148" d="M113 745v211h153v99q0 90 13.5 162.5t38 125t62 92t80.5 64t99.5 39.5t113 21t126.5 6q286 0 463 -105l-88 -203q-172 89 -367 89q-47 0 -84.5 -7t-74.5 -27.5t-62 -54t-40.5 -90.5t-15.5 -133v-78h521v-211h-521v-745h-264v745h-153z" />
<glyph unicode="g" horiz-adv-x="1454" d="M96 461v69q0 105 28.5 186t76 131.5t114.5 83t138.5 45.5t154.5 13q163 0 279.5 -42.5t165.5 -131.5v141h247v-880q0 -105 -21 -186t-62.5 -135.5t-95 -91t-128.5 -56t-151 -27.5t-174 -8q-185 0 -320 41.5t-201 118.5l91 186q67 -65 175.5 -103t223.5 -38q54 0 95 3.5 t90.5 13t84.5 30t66 52t47 82t16 116.5v55q-140 -129 -426 -129q-86 0 -157.5 12t-139.5 43.5t-114.5 82.5t-74.5 133t-28 190zM358 465q0 -58 19 -102.5t50 -73t75.5 -46.5t91 -25t100.5 -7q61 0 115 9t101.5 28.5t80.5 53.5t45 81v225q-50 162 -346 162q-53 0 -98.5 -7 t-89.5 -25t-75 -46t-50 -73t-19 -103v-51z" />
<glyph unicode="h" horiz-adv-x="1542" d="M199 0v1530h241v-696q75 72 196.5 113.5t270.5 41.5q72 0 133.5 -10.5t122.5 -39.5t103.5 -74.5t69 -121.5t26.5 -176v-567h-262v502q0 256 -283 256q-114 0 -206.5 -37t-149.5 -94v-627h-262z" />
<glyph unicode="i" horiz-adv-x="675" d="M172 1300q0 68 43.5 105t122.5 37t122.5 -37t43.5 -105q0 -67 -44 -105t-122 -38t-122 38t-44 105zM207 0v956h262v-956h-262z" />
<glyph unicode="j" horiz-adv-x="755" d="M-70 -221q77 0 133.5 13.5t102 47t69 96t23.5 154.5v866h264v-864q0 -125 -28.5 -218.5t-77.5 -153t-123 -96t-156 -50.5t-186 -14zM215 1300q0 68 43.5 105t122.5 37t122.5 -37t43.5 -105q0 -67 -44 -105t-122 -38t-122 38t-44 105z" />
<glyph unicode="k" horiz-adv-x="1400" d="M188 0v1518h263v-979l528 417h346l-410 -333l433 -623h-322l-309 461l-266 -217v-244h-263z" />
<glyph unicode="l" horiz-adv-x="657" d="M199 0v1530h262v-1530h-262z" />
<glyph unicode="m" horiz-adv-x="2433" d="M207 0v956h242v-122q74 73 192 114t266 41q296 0 400 -184q73 84 200.5 134t290.5 50q455 0 455 -432v-557h-262v492q0 65 -16.5 114t-42.5 77.5t-64.5 45.5t-76 23t-83.5 6q-109 0 -200.5 -35t-149.5 -90q4 -50 4 -76v-557h-262v492q0 65 -16.5 114t-43 77.5t-65 45.5 t-76 23t-82.5 6q-113 0 -202.5 -37t-145.5 -94v-627h-262z" />
<glyph unicode="n" horiz-adv-x="1550" d="M207 0v956h242v-122q76 72 196 113.5t270 41.5q457 0 457 -422v-567h-262v502q0 77 -24 130t-67.5 79t-89.5 36.5t-104 10.5q-113 0 -206 -37t-150 -94v-627h-262z" />
<glyph unicode="o" horiz-adv-x="1511" d="M125 442v72q0 106 34 189t92 136t140 87.5t171.5 48.5t193.5 14t193 -14t171 -48.5t139.5 -87.5t92 -136t34.5 -189v-72q0 -107 -34.5 -190.5t-92 -136.5t-139.5 -87.5t-171 -48.5t-193 -14t-193.5 14t-171.5 48.5t-140 87.5t-92 136.5t-34 190.5zM387 455q0 -63 22 -111 t57.5 -77.5t85 -48t99 -25.5t105.5 -7q71 0 131.5 12t116.5 40.5t88 83.5t32 133v49q0 62 -22 109.5t-57 76.5t-84.5 47t-99 24.5t-105.5 6.5t-105.5 -6.5t-99 -24.5t-85 -47t-57.5 -76.5t-22 -109.5v-49z" />
<glyph unicode="p" horiz-adv-x="1632" d="M188 -393v1349h232v-157q134 190 514 190q96 0 178 -14t156 -48.5t126 -87.5t82.5 -136t30.5 -189v-72q0 -107 -30.5 -190t-83 -136.5t-128 -88t-159.5 -48.5t-184 -14q-332 0 -471 133v-491h-263zM451 401q11 -63 47.5 -106.5t95.5 -66.5t125.5 -32.5t152.5 -9.5 q72 0 133.5 12t118 40.5t89 83.5t32.5 133v49q0 62 -22.5 109.5t-58 76.5t-85.5 47t-100 24.5t-107 6.5q-378 0 -421 -209v-158z" />
<glyph unicode="q" horiz-adv-x="1638" d="M125 442v72q0 106 31.5 189t85 136t129.5 87.5t159 48.5t179 14q374 0 512 -190l8 157h221v-1349h-262v524q-150 -166 -481 -166q-105 0 -190.5 14t-160 48.5t-124.5 88t-78.5 136t-28.5 190.5zM387 455q0 -63 22 -111t57.5 -77.5t85 -48t99 -25.5t105.5 -7q67 0 129 8.5 t123.5 27t108.5 54t71 84.5v242q-20 48 -66.5 82t-108.5 51.5t-124.5 25t-132.5 7.5q-56 0 -105.5 -6.5t-99 -24.5t-85 -47t-57.5 -76.5t-22 -109.5v-49z" />
<glyph unicode="r" horiz-adv-x="1114" d="M207 0v956h242v-149q56 92 150.5 137t205.5 45q182 0 305 -104l-129 -189q-106 76 -227 76q-97 0 -172 -47.5t-113 -134.5v-590h-262z" />
<glyph unicode="s" horiz-adv-x="1337" d="M92 102l55 191q72 -66 207.5 -101.5t296.5 -35.5q326 0 326 133q0 49 -37.5 73t-114.5 27l-331 12q-204 7 -297 79.5t-93 191.5q0 164 146.5 240.5t406.5 76.5q180 0 314.5 -28.5t238.5 -100.5l-98 -172q-136 109 -446 109q-135 0 -222.5 -28.5t-87.5 -88.5 q0 -52 45 -74.5t129 -27.5l342 -17q180 -8 267.5 -68t87.5 -196q0 -332 -584 -332q-369 0 -551 137z" />
<glyph unicode="t" horiz-adv-x="1312" d="M113 745v211h153v252h264v-252h656v-211h-656v-249q0 -75 15.5 -132t40.5 -90.5t62 -54t74.5 -28t84.5 -7.5q197 0 367 88l88 -200q-78 -51 -200 -79t-263 -28q-69 0 -126 6t-113.5 21t-99.5 40t-80.5 64.5t-62 92t-38 125t-13.5 161.5v270h-153z" />
<glyph unicode="u" horiz-adv-x="1548" d="M193 387v567h262v-501q0 -62 16.5 -109t43 -74.5t64.5 -44t75.5 -22.5t82.5 -6q112 0 202.5 37t147.5 94v626h263v-956h-242v123q-76 -73 -195 -114.5t-266 -41.5q-454 0 -454 422z" />
<glyph unicode="v" horiz-adv-x="1404" d="M29 956h323l346 -720l355 720h323l-532 -956h-291z" />
<glyph unicode="w" horiz-adv-x="2080" d="M29 956h323l246 -696l274 696h336l271 -696l250 696h323l-426 -956h-319l-271 692l-284 -692h-303z" />
<glyph unicode="x" horiz-adv-x="1343" d="M43 0l438 485l-415 471h323l283 -346l289 346h323l-422 -473l438 -485h-323l-305 352l-305 -350h-324z" />
<glyph unicode="y" horiz-adv-x="1439" d="M29 956h323l359 -729l376 729h324l-756 -1349h-278l198 360z" />
<glyph unicode="z" horiz-adv-x="1249" d="M104 745v211h1061v-208l-647 -537h668v-211h-1073v203l649 542h-658z" />
<glyph unicode="{" horiz-adv-x="1024" d="M102 528v197q130 -2 213.5 3t125.5 18.5t56.5 30t14.5 42.5q0 27 -22 55t-57 54.5t-77.5 56t-85.5 66t-78 77.5t-57 97t-22 118q0 34 7 64t33 68t69 65t123 45.5t187 18.5q246 0 441 -68l-43 -195q-53 21 -166.5 37.5t-216.5 16.5q-191 0 -191 -90q0 -27 22.5 -56t59 -57 t80 -58.5t87 -65t80 -71t59 -82t22.5 -92.5q0 -152 -223 -196q223 -44 223 -199q0 -47 -22.5 -92.5t-59 -81.5t-80 -70t-87 -64.5t-80 -58t-59 -56.5t-22.5 -56q0 -90 191 -90q105 0 218 15.5t165 35.5l43 -193q-177 -67 -441 -67q-107 0 -187 18.5t-123 45.5t-69 64.5 t-33 67.5t-7 64q0 62 22 118t57 97t77.5 77.5t85.5 66t78 56t57 54.5t22 55q0 25 -14.5 41.5t-56.5 30t-125.5 19t-213.5 3.5z" />
<glyph unicode="|" horiz-adv-x="698" d="M217 -260v1896h264v-1896h-264z" />
<glyph unicode="}" horiz-adv-x="1024" d="M61 -283l43 193q52 -20 165 -35.5t218 -15.5q191 0 191 90q0 27 -22.5 56t-59 56.5t-80 58t-87 64.5t-80 70t-59 81.5t-22.5 92.5q0 155 224 199q-106 21 -165 70t-59 126q0 47 22.5 92.5t59 82t80 71t87 65t80 58.5t59 57t22.5 56q0 90 -191 90q-103 0 -216.5 -16.5 t-166.5 -37.5l-43 195q195 68 441 68q107 0 187 -18.5t123.5 -45.5t69.5 -65t33 -68t7 -64q0 -62 -22 -118t-57.5 -97t-78 -77.5t-85 -66t-78 -56t-57.5 -54.5t-22 -55q0 -26 14.5 -42.5t56.5 -30t125.5 -18.5t213.5 -3v-197q-130 2 -213.5 -3.5t-125.5 -19t-56.5 -30 t-14.5 -41.5q0 -27 22 -55t57.5 -54.5t78 -56t85 -66t78 -77.5t57.5 -97t22 -118q0 -34 -7 -64t-33 -67.5t-69.5 -64.5t-123.5 -45.5t-187 -18.5q-264 0 -441 67z" />
<glyph unicode="&#xa1;" horiz-adv-x="792" d="M215 848q0 71 42.5 107t135.5 36q185 0 185 -143q0 -137 -185 -137q-93 0 -135.5 34t-42.5 103zM258 -393v987h264v-987h-264z" />
<glyph unicode="&#xa2;" horiz-adv-x="1462" d="M125 666v71q0 118 41 207t116.5 143t168.5 83t211 38v170h266v-172q273 -27 430 -151l-133 -191q-135 127 -426 127q-412 0 -412 -266v-49q0 -266 418 -266q297 0 434 137l121 -187q-132 -132 -432 -163v-197h-266v190q-90 6 -166.5 24t-146 54.5t-118.5 89.5 t-77.5 131.5t-28.5 176.5z" />
<glyph unicode="&#xa3;" horiz-adv-x="1673" d="M59 567v176h211q-55 108 -55 226q0 199 169 321.5t482 122.5q236 0 410 -54.5t326 -180.5l-162 -203q-82 93 -217.5 144.5t-315.5 51.5q-199 0 -297 -67.5t-98 -181.5q0 -87 57 -179h727v-176h-622q33 -68 33 -139q0 -119 -105 -190h997v-238h-1509v227q69 0 127 9.5 t106.5 30t75.5 57t27 86.5q0 74 -49 157h-318z" />
<glyph unicode="&#xa4;" horiz-adv-x="1228" />
<glyph unicode="&#xa5;" horiz-adv-x="1724" d="M-6 1378h303l567 -579l563 579h302l-596 -612h333v-186h-469v-187h469v-186h-469v-207h-264v207h-469v186h469v187h-469v186h334z" />
<glyph unicode="&#xa6;" horiz-adv-x="698" d="M217 -260v868h264v-868h-264zM217 772v864h264v-864h-264z" />
<glyph unicode="&#xa7;" horiz-adv-x="1755" d="M104 -152l103 222q139 -102 306.5 -149.5t385.5 -47.5q238 0 341 43.5t103 126.5q0 69 -67 100.5t-236 40.5l-411 23q-95 5 -166 16t-135 34t-104 58t-63.5 89.5t-23.5 127.5q0 72 40.5 131t101.5 97q-138 82 -138 264q0 389 703 389q238 0 425.5 -43.5t368.5 -157.5 l-100 -223q-145 99 -310.5 144t-383.5 45q-237 0 -336.5 -39.5t-99.5 -122.5q0 -70 70.5 -106t242.5 -46l434 -22q95 -4 167 -15t135.5 -34t104 -58.5t64 -90t23.5 -126.5q0 -76 -42.5 -137t-105.5 -102q109 -78 109 -230q0 -208 -173 -309.5t-487 -101.5q-276 0 -472 44.5 t-374 165.5zM391 561q0 -75 64 -109.5t221 -45.5l491 -33q70 -5 144 -19q82 58 82 135q0 76 -64 111.5t-219 44.5l-516 33q-60 3 -113 12q-90 -51 -90 -129z" />
<glyph unicode="&#xa9;" horiz-adv-x="1972" d="M133 651v78q0 346 220 515t628 169q273 0 462 -71.5t292.5 -225.5t103.5 -387v-78q0 -234 -103.5 -388.5t-292.5 -226t-462 -71.5q-408 0 -628 169t-220 517zM215 635q0 -129 39 -230.5t106.5 -169t165.5 -111t210 -62.5t245 -19q170 0 306 31t244 98.5t167 184.5t59 278 v110q0 129 -39.5 230.5t-108 168.5t-167.5 110.5t-212.5 62t-248.5 18.5q-133 0 -245 -18.5t-210 -62t-165.5 -110.5t-106.5 -168.5t-39 -230.5v-110zM451 682v53q0 110 43.5 188.5t122 122t173 63t211.5 19.5q160 0 276 -30.5t216 -106.5l-117 -160q-118 105 -358 105 q-342 0 -342 -207v-41q0 -209 348 -209q248 -3 373 113l100 -162q-187 -143 -516 -143q-86 0 -160 11.5t-143.5 40t-118.5 72.5t-78.5 113t-29.5 158z" />
<glyph unicode="&#xab;" horiz-adv-x="1662" d="M45 387v201l723 373l53 -222l-571 -258l571 -245l-53 -220zM807 387v201l723 373l53 -222l-571 -258l571 -245l-53 -220z" />
<glyph unicode="&#xad;" horiz-adv-x="1249" d="M117 494v211h1016v-211h-1016z" />
<glyph unicode="&#xae;" horiz-adv-x="1773" d="M133 836v55q0 272 197 408.5t547 136.5q360 0 561.5 -136.5t201.5 -408.5v-55q0 -184 -95 -307.5t-263 -180.5t-405 -57q-351 0 -547.5 136t-196.5 409zM215 819q0 -123 52 -212.5t145 -140.5t208.5 -75t256.5 -24q145 0 264 24t215 75t149.5 140.5t53.5 212.5v88 q0 123 -53.5 213t-149.5 140.5t-214.5 74t-264.5 23.5q-112 0 -207.5 -14t-180.5 -47t-145 -84t-94.5 -129t-34.5 -177v-88zM528 510v707h492q141 0 210.5 -51.5t69.5 -170.5v-16q0 -92 -46.5 -150.5t-135.5 -78.5l207 -240h-182l-195 229h-268v-229h-152zM680 877h344 q55 0 88 25.5t33 74.5v10q0 51 -30 69.5t-91 18.5h-344v-198z" />
<glyph unicode="&#xb0;" horiz-adv-x="1171" d="M104 1012v51q0 78 26 139t70 100t107 64.5t131 36t148 10.5q100 0 182.5 -17.5t151.5 -56.5t108 -109t39 -167v-51q0 -97 -39 -167t-108 -109t-151.5 -56.5t-182.5 -17.5q-80 0 -148 10.5t-131 36t-107 64.5t-70 100t-26 139zM313 1022q0 -53 23.5 -90t65 -56.5 t86.5 -27.5t98 -8q52 -1 97 7t85.5 27.5t64 57t23.5 90.5v33q0 180 -270 180q-42 0 -78.5 -4.5t-73 -16.5t-62.5 -31.5t-42.5 -52.5t-16.5 -75v-33z" />
<glyph unicode="&#xb1;" horiz-adv-x="1228" />
<glyph unicode="&#xb6;" horiz-adv-x="1634" d="M160 985q0 109 31 185.5t93 122t148 65.5t205 20h782v-1622h-258v836h-524q-477 0 -477 393z" />
<glyph unicode="&#xb7;" horiz-adv-x="522" d="M80 692q0 75 46.5 115.5t131.5 40.5q87 0 135.5 -40.5t48.5 -115.5q0 -79 -48.5 -122.5t-135.5 -43.5q-85 0 -131.5 43.5t-46.5 122.5z" />
<glyph unicode="&#xbb;" horiz-adv-x="1662" d="M80 236l571 245l-571 258l53 222l723 -373v-201l-723 -371zM842 236l571 245l-571 258l53 222l723 -373v-201l-723 -371z" />
<glyph unicode="&#xbf;" horiz-adv-x="1597" d="M111 -14q0 176 107.5 280.5t316.5 124.5q57 8 93.5 15.5t69.5 21.5t50.5 33t26 48.5t5.5 70.5h256q10 -89 -5 -154.5t-43.5 -104.5t-83.5 -65t-106 -37.5t-130 -21.5q-151 -21 -219 -64.5t-68 -130.5q0 -97 89.5 -144.5t283.5 -47.5q193 0 349.5 63.5t254.5 194.5 l153 -174q-239 -322 -763 -322q-150 0 -263.5 21.5t-199 69t-130 128.5t-44.5 195zM727 842q0 145 184 145q93 0 136 -36.5t43 -108.5q0 -68 -43 -101.5t-136 -33.5q-184 0 -184 135z" />
<glyph unicode="&#xc0;" horiz-adv-x="1738" d="M61 0l644 1389h327l645 -1389h-293l-106 238h-819l-105 -238h-293zM500 1790l131 182l407 -387l-88 -106zM553 451h631l-316 708z" />
<glyph unicode="&#xc1;" horiz-adv-x="1738" d="M61 0l644 1389h327l645 -1389h-293l-106 238h-819l-105 -238h-293zM553 451h631l-316 708zM733 1585l408 387l131 -182l-451 -311z" />
<glyph unicode="&#xc2;" horiz-adv-x="1738" d="M61 0l644 1389h327l645 -1389h-293l-106 238h-819l-105 -238h-293zM424 1585l375 387h145l375 -387l-88 -106l-361 268l-358 -268zM553 451h631l-316 708z" />
<glyph unicode="&#xc3;" horiz-adv-x="1738" d="M61 0l644 1389h327l645 -1389h-293l-106 238h-819l-105 -238h-293zM418 1491q-13 208 57.5 314t192.5 106q27 0 49.5 -5t45 -17.5t35.5 -22t39.5 -31t39.5 -31.5q10 -9 33.5 -32t34 -32t28.5 -18.5t35 -9.5q43 0 63.5 56t11.5 147h211q10 -204 -65 -314t-193 -110 q-25 0 -50 7t-38.5 12t-39.5 25t-31 24.5l-35 31.5q-8 7 -28.5 27t-28 26t-22.5 17t-27.5 14.5t-26.5 3.5q-46 0 -67 -49t-15 -139h-209zM553 451h631l-316 708z" />
<glyph unicode="&#xc4;" horiz-adv-x="1738" d="M61 0l644 1389h327l645 -1389h-293l-106 238h-819l-105 -238h-293zM436 1718q0 73 42 112.5t120 39.5q77 0 121.5 -39.5t44.5 -112.5q0 -77 -44.5 -119.5t-121.5 -42.5q-78 0 -120 42t-42 120zM553 451h631l-316 708zM979 1718q0 73 42.5 112.5t119.5 39.5t121.5 -39.5 t44.5 -112.5q0 -77 -44.5 -119.5t-121.5 -42.5t-119.5 42t-42.5 120z" />
<glyph unicode="&#xc5;" horiz-adv-x="1738" d="M61 0l644 1389h327l645 -1389h-293l-106 238h-819l-105 -238h-293zM438 1739v14q0 123 104 192.5t328 69.5q426 0 426 -262v-14q0 -262 -426 -262q-432 0 -432 262zM553 451h631l-316 708zM631 1741q0 -105 239 -105q236 0 236 105v10q0 102 -236 102q-239 0 -239 -102 v-10z" />
<glyph unicode="&#xc6;" horiz-adv-x="2398" d="M-25 0l818 1378h1493v-237h-920l14 -332h695v-209h-686l14 -360h891v-240h-1153l-13 371h-645l-213 -371h-295zM606 582h514l-18 575h-164z" />
<glyph unicode="&#xc7;" d="M127 651v78q0 347 204 515.5t589 168.5q124 0 229 -16t204.5 -53.5t181.5 -105t140 -163.5l-200 -168q-94 135 -227.5 198.5t-327.5 63.5q-119 0 -213 -24t-165.5 -75t-110 -136.5t-38.5 -202.5v-82q0 -117 38.5 -203t110 -137t165.5 -75.5t213 -24.5q206 0 340.5 66 t228.5 219l207 -158q-117 -190 -307.5 -280.5t-468.5 -90.5h-5l-10 -51q152 6 225.5 -34t73.5 -132q0 -172 -309 -172q-81 0 -139 9.5t-78 19.5l27 119q67 -25 161 -25q158 0 158 57q0 32 -58.5 44.5t-197.5 6.5l27 162q-325 27 -496.5 195t-171.5 487z" />
<glyph unicode="&#xc8;" horiz-adv-x="1650" d="M217 0v1378h1319v-237h-1055v-332h846v-209h-846v-360h1065v-240h-1329zM506 1790l131 182l407 -387l-88 -106z" />
<glyph unicode="&#xc9;" horiz-adv-x="1650" d="M217 0v1378h1319v-237h-1055v-332h846v-209h-846v-360h1065v-240h-1329zM739 1585l408 387l131 -182l-451 -311z" />
<glyph unicode="&#xca;" horiz-adv-x="1650" d="M217 0v1378h1319v-237h-1055v-332h846v-209h-846v-360h1065v-240h-1329zM430 1585l375 387h145l375 -387l-88 -106l-360 268l-359 -268z" />
<glyph unicode="&#xcb;" horiz-adv-x="1650" d="M217 0v1378h1319v-237h-1055v-332h846v-209h-846v-360h1065v-240h-1329zM442 1718q0 73 42 112.5t120 39.5q77 0 121.5 -39.5t44.5 -112.5q0 -77 -44.5 -119.5t-121.5 -42.5q-78 0 -120 42t-42 120zM985 1718q0 73 42.5 112.5t119.5 39.5t121.5 -39.5t44.5 -112.5 q0 -77 -44.5 -119.5t-121.5 -42.5t-119.5 42t-42.5 120z" />
<glyph unicode="&#xcc;" horiz-adv-x="698" d="M-20 1790l131 182l407 -387l-88 -106zM217 0v1378h264v-1378h-264z" />
<glyph unicode="&#xcd;" horiz-adv-x="698" d="M213 1585l408 387l131 -182l-451 -311zM217 0v1378h264v-1378h-264z" />
<glyph unicode="&#xce;" horiz-adv-x="698" d="M-96 1585l375 387h145l375 -387l-88 -106l-361 268l-358 -268zM217 0v1378h264v-1378h-264z" />
<glyph unicode="&#xcf;" horiz-adv-x="698" d="M-84 1718q0 73 42 112.5t120 39.5q77 0 121.5 -39.5t44.5 -112.5q0 -77 -44.5 -119.5t-121.5 -42.5q-78 0 -120 42t-42 120zM217 0v1378h264v-1378h-264zM459 1718q0 73 42.5 112.5t119.5 39.5t121 -39.5t44 -112.5q0 -77 -44 -119.5t-121 -42.5t-119.5 42t-42.5 120z " />
<glyph unicode="&#xd0;" horiz-adv-x="1878" d="M82 584v211h135v583h748q375 0 575.5 -160.5t200.5 -492.5v-70q0 -172 -52 -298t-153.5 -204t-243 -115.5t-327.5 -37.5h-748v584h-135zM481 244h484q255 0 382.5 94t127.5 315v74q0 215 -128.5 311.5t-381.5 96.5h-484v-340h588v-211h-588v-340z" />
<glyph unicode="&#xd1;" horiz-adv-x="1835" d="M217 0v1378h264l877 -1003v1003h260v-1378h-264l-877 1006v-1006h-260zM465 1491q-13 208 58 314t192 106q27 0 49.5 -5t45 -17.5t35.5 -22t39.5 -31t39.5 -31.5q10 -9 33.5 -32t34 -32t28.5 -18.5t35 -9.5q43 0 63.5 56t11.5 147h211q10 -204 -65 -314t-193 -110 q-25 0 -50 7t-38.5 12t-39.5 25t-31 24.5l-35 31.5q-8 7 -28.5 27t-28 26t-22.5 17t-27.5 14.5t-26.5 3.5q-46 0 -67 -49t-15 -139h-209z" />
<glyph unicode="&#xd2;" horiz-adv-x="1902" d="M127 651v78q0 347 211.5 515.5t607.5 168.5q400 0 615 -168.5t215 -515.5v-78q0 -348 -215 -517t-615 -169q-396 0 -607.5 169t-211.5 517zM393 649q0 -117 40.5 -203t116 -137t174 -75.5t222.5 -24.5q127 0 227 24.5t177 75.5t118 137t41 203v82q0 117 -41 202.5 t-118 136.5t-177 75t-227 24q-124 0 -222.5 -24t-174 -75t-116 -136.5t-40.5 -202.5v-82zM580 1790l131 182l407 -387l-88 -106z" />
<glyph unicode="&#xd3;" horiz-adv-x="1902" d="M127 651v78q0 347 211.5 515.5t607.5 168.5q400 0 615 -168.5t215 -515.5v-78q0 -348 -215 -517t-615 -169q-396 0 -607.5 169t-211.5 517zM393 649q0 -117 40.5 -203t116 -137t174 -75.5t222.5 -24.5q127 0 227 24.5t177 75.5t118 137t41 203v82q0 117 -41 202.5 t-118 136.5t-177 75t-227 24q-124 0 -222.5 -24t-174 -75t-116 -136.5t-40.5 -202.5v-82zM813 1585l408 387l131 -182l-451 -311z" />
<glyph unicode="&#xd4;" horiz-adv-x="1902" d="M127 651v78q0 347 211.5 515.5t607.5 168.5q400 0 615 -168.5t215 -515.5v-78q0 -348 -215 -517t-615 -169q-396 0 -607.5 169t-211.5 517zM393 649q0 -117 40.5 -203t116 -137t174 -75.5t222.5 -24.5q127 0 227 24.5t177 75.5t118 137t41 203v82q0 117 -41 202.5 t-118 136.5t-177 75t-227 24q-124 0 -222.5 -24t-174 -75t-116 -136.5t-40.5 -202.5v-82zM504 1585l375 387h145l375 -387l-88 -106l-361 268l-358 -268z" />
<glyph unicode="&#xd5;" horiz-adv-x="1902" d="M127 651v78q0 347 211.5 515.5t607.5 168.5q400 0 615 -168.5t215 -515.5v-78q0 -348 -215 -517t-615 -169q-396 0 -607.5 169t-211.5 517zM393 649q0 -117 40.5 -203t116 -137t174 -75.5t222.5 -24.5q127 0 227 24.5t177 75.5t118 137t41 203v82q0 117 -41 202.5 t-118 136.5t-177 75t-227 24q-124 0 -222.5 -24t-174 -75t-116 -136.5t-40.5 -202.5v-82zM498 1491q-13 208 57.5 314t192.5 106q27 0 49.5 -5t44.5 -17.5t35.5 -22t39.5 -31t39 -31.5q10 -9 33.5 -32t34 -32t28.5 -18.5t35 -9.5q43 0 64 56t12 147h211q10 -204 -65 -314 t-193 -110q-25 0 -50 7t-38.5 12t-39.5 25t-31 24.5l-35 31.5q-8 7 -24.5 23t-23.5 22t-20 16.5t-21.5 15t-20.5 8t-24 3.5q-45 0 -66 -49t-15 -139h-209z" />
<glyph unicode="&#xd6;" horiz-adv-x="1902" d="M127 651v78q0 347 211.5 515.5t607.5 168.5q400 0 615 -168.5t215 -515.5v-78q0 -348 -215 -517t-615 -169q-396 0 -607.5 169t-211.5 517zM393 649q0 -117 40.5 -203t116 -137t174 -75.5t222.5 -24.5q127 0 227 24.5t177 75.5t118 137t41 203v82q0 117 -41 202.5 t-118 136.5t-177 75t-227 24q-124 0 -222.5 -24t-174 -75t-116 -136.5t-40.5 -202.5v-82zM516 1718q0 73 42 112.5t120 39.5q77 0 121.5 -39.5t44.5 -112.5q0 -77 -44.5 -119.5t-121.5 -42.5q-78 0 -120 42t-42 120zM1059 1718q0 73 42.5 112.5t119.5 39.5t121 -39.5 t44 -112.5q0 -77 -44 -119.5t-121 -42.5t-119.5 42t-42.5 120z" />
<glyph unicode="&#xd7;" horiz-adv-x="1351" d="M66 289l450 366l-438 357l141 143l457 -371l457 371l143 -143l-440 -357l450 -366l-141 -144l-467 381l-469 -381z" />
<glyph unicode="&#xd8;" horiz-adv-x="1902" d="M117 78l143 135q-133 169 -133 438v78q0 347 211.5 515.5t607.5 168.5q303 0 498 -94l119 111l209 -162l-121 -113q125 -162 125 -426v-78q0 -348 -215 -517t-615 -169q-288 0 -477 88l-145 -135zM393 649q0 -150 68 -250l778 727q-117 43 -293 43q-124 0 -222.5 -24 t-174 -75t-116 -136.5t-40.5 -202.5v-82zM676 246q115 -37 270 -37q127 0 227 24.5t177 75.5t118 137t41 203v82q0 144 -59 236z" />
<glyph unicode="&#xd9;" d="M164 678v700h266v-702q0 -127 32.5 -218.5t94 -145t143.5 -78.5t189 -25q100 0 179 25t140 78.5t94 145.5t33 218v702h267v-700q0 -713 -713 -713q-725 0 -725 713zM514 1790l131 182l408 -387l-88 -106z" />
<glyph unicode="&#xda;" d="M164 678v700h266v-702q0 -127 32.5 -218.5t94 -145t143.5 -78.5t189 -25q100 0 179 25t140 78.5t94 145.5t33 218v702h267v-700q0 -713 -713 -713q-725 0 -725 713zM748 1585l407 387l131 -182l-450 -311z" />
<glyph unicode="&#xdb;" d="M164 678v700h266v-702q0 -127 32.5 -218.5t94 -145t143.5 -78.5t189 -25q100 0 179 25t140 78.5t94 145.5t33 218v702h267v-700q0 -713 -713 -713q-725 0 -725 713zM438 1585l375 387h145l375 -387l-88 -106l-360 268l-359 -268z" />
<glyph unicode="&#xdc;" d="M164 678v700h266v-702q0 -127 32.5 -218.5t94 -145t143.5 -78.5t189 -25q100 0 179 25t140 78.5t94 145.5t33 218v702h267v-700q0 -713 -713 -713q-725 0 -725 713zM451 1718q0 74 41.5 113t119.5 39q77 0 121.5 -39.5t44.5 -112.5q0 -77 -44.5 -119.5t-121.5 -42.5 q-78 0 -119.5 42t-41.5 120zM993 1718q0 73 42.5 112.5t119.5 39.5t121.5 -39.5t44.5 -112.5q0 -77 -44.5 -119.5t-121.5 -42.5t-119.5 42t-42.5 120z" />
<glyph unicode="&#xdd;" horiz-adv-x="1691" d="M31 1378h311l506 -653l500 653h313l-680 -872v-506h-264v510zM709 1585l407 387l131 -182l-450 -311z" />
<glyph unicode="&#xde;" horiz-adv-x="1650" d="M217 0v1378h258v-174h555q264 0 393 -102.5t129 -343.5q0 -225 -134.5 -347t-387.5 -122h-555v-289h-258zM475 520h537q130 0 203 60t73 178q0 61 -19 102.5t-56.5 64.5t-85.5 32.5t-115 9.5h-537v-447z" />
<glyph unicode="&#xdf;" horiz-adv-x="1593" d="M219 0v981q0 137 29 239t79.5 167.5t128 105.5t165.5 56t200 16q130 0 227 -22t170 -71t110.5 -133t37.5 -202q0 -145 -75.5 -236t-203.5 -129q443 -21 443 -373q0 -99 -31 -176.5t-81.5 -125t-121 -78.5t-141.5 -42.5t-151 -11.5q-149 0 -238.5 15t-175.5 55l24 231 q117 -73 332 -73q322 0 322 229q0 209 -350 209h-293v207h155q63 0 119.5 15t103 45t74 81.5t27.5 118.5q0 248 -283 248q-60 0 -106.5 -8t-91.5 -32t-74.5 -63t-47.5 -104.5t-18 -153.5v-985h-264z" />
<glyph unicode="&#xe0;" horiz-adv-x="1415" d="M123 266q0 153 95.5 227t297.5 74h471q-14 113 -99.5 157t-240.5 44q-134 0 -225.5 -28.5t-179.5 -96.5l-99 193q195 153 553 153q99 0 177 -10.5t151 -39t121.5 -74.5t77 -121t28.5 -175v-569h-237v139q-137 -174 -504 -174q-387 0 -387 301zM319 1368l132 182l407 -387 l-88 -106zM387 279q0 -115 182 -115q353 0 420 164v49h-469q-133 0 -133 -98z" />
<glyph unicode="&#xe1;" horiz-adv-x="1415" d="M123 266q0 153 95.5 227t297.5 74h471q-14 113 -99.5 157t-240.5 44q-134 0 -225.5 -28.5t-179.5 -96.5l-99 193q195 153 553 153q99 0 177 -10.5t151 -39t121.5 -74.5t77 -121t28.5 -175v-569h-237v139q-137 -174 -504 -174q-387 0 -387 301zM387 279q0 -115 182 -115 q353 0 420 164v49h-469q-133 0 -133 -98zM553 1163l408 387l131 -182l-451 -311z" />
<glyph unicode="&#xe2;" horiz-adv-x="1415" d="M123 266q0 153 95.5 227t297.5 74h471q-14 113 -99.5 157t-240.5 44q-134 0 -225.5 -28.5t-179.5 -96.5l-99 193q195 153 553 153q99 0 177 -10.5t151 -39t121.5 -74.5t77 -121t28.5 -175v-569h-237v139q-137 -174 -504 -174q-387 0 -387 301zM244 1163l374 387h146 l375 -387l-88 -106l-361 268l-358 -268zM387 279q0 -115 182 -115q353 0 420 164v49h-469q-133 0 -133 -98z" />
<glyph unicode="&#xe3;" horiz-adv-x="1415" d="M123 266q0 153 95.5 227t297.5 74h471q-14 113 -99.5 157t-240.5 44q-134 0 -225.5 -28.5t-179.5 -96.5l-99 193q195 153 553 153q99 0 177 -10.5t151 -39t121.5 -74.5t77 -121t28.5 -175v-569h-237v139q-137 -174 -504 -174q-387 0 -387 301zM238 1069q-13 208 57.5 314 t191.5 106q27 0 49.5 -5t45 -17.5t35.5 -22t39.5 -31t39.5 -31.5q10 -9 33.5 -32t34 -32t28.5 -18.5t35 -9.5q43 0 64 56t12 147h211q10 -204 -65 -314t-193 -110q-25 0 -50 7t-38.5 12t-39.5 25t-31 24.5l-35 31.5q-8 7 -24.5 23t-23.5 22t-20 16.5t-21.5 15t-20.5 8 t-24 3.5q-46 0 -67 -49t-15 -139h-208zM387 279q0 -115 182 -115q353 0 420 164v49h-469q-133 0 -133 -98z" />
<glyph unicode="&#xe4;" horiz-adv-x="1415" d="M123 266q0 153 95.5 227t297.5 74h471q-14 113 -99.5 157t-240.5 44q-134 0 -225.5 -28.5t-179.5 -96.5l-99 193q195 153 553 153q99 0 177 -10.5t151 -39t121.5 -74.5t77 -121t28.5 -175v-569h-237v139q-137 -174 -504 -174q-387 0 -387 301zM256 1294q0 75 42 113.5 t120 38.5t122 -39t44 -113q0 -76 -44.5 -118.5t-121.5 -42.5q-78 0 -120 42t-42 119zM387 279q0 -115 182 -115q353 0 420 164v49h-469q-133 0 -133 -98zM799 1294q0 74 42.5 113t119.5 39q78 0 121.5 -39t43.5 -113q0 -76 -44 -118.5t-121 -42.5t-119.5 42.5t-42.5 118.5z " />
<glyph unicode="&#xe5;" horiz-adv-x="1415" d="M123 266q0 153 95.5 227t297.5 74h471q-14 113 -99.5 157t-240.5 44q-134 0 -225.5 -28.5t-179.5 -96.5l-99 193q195 153 553 153q99 0 177 -10.5t151 -39t121.5 -74.5t77 -121t28.5 -175v-569h-237v139q-137 -174 -504 -174q-387 0 -387 301zM258 1339v15q0 120 110 191 t322 71q211 0 318.5 -71t107.5 -191v-15q0 -122 -107.5 -193t-318.5 -71q-212 0 -322 71.5t-110 192.5zM387 279q0 -115 182 -115q353 0 420 164v49h-469q-133 0 -133 -98zM451 1341q0 -104 239 -104q236 0 236 104v11q0 102 -236 102q-239 0 -239 -102v-11z" />
<glyph unicode="&#xe6;" horiz-adv-x="2258" d="M123 266q0 149 96 221t297 72h471q-11 117 -97 163t-243 46q-134 0 -225.5 -28.5t-179.5 -96.5l-99 193q195 153 553 153q326 0 443 -149q142 149 448 149q90 0 167 -12.5t152 -44.5t127.5 -83t84.5 -133.5t32 -189.5v-155h-886q42 -185 323 -185q156 0 250.5 24 t155.5 85l166 -145q-93 -97 -233 -141t-339 -44q-369 0 -497 213q-75 -118 -220 -165.5t-360 -47.5q-387 0 -387 301zM387 279q0 -115 207 -115q283 0 395 96v109h-469q-61 0 -97 -19t-36 -71zM1255 535h633q-5 233 -301 233q-327 0 -332 -233z" />
<glyph unicode="&#xe7;" horiz-adv-x="1449" d="M125 442v72q0 107 33 189.5t89 135.5t136.5 87.5t170 48.5t196.5 14q179 0 311.5 -37.5t241.5 -134.5l-154 -172q-125 123 -393 123q-369 0 -369 -264v-49q0 -269 375 -269q268 0 403 138l135 -174q-90 -96 -220 -138t-306 -47l-14 -65q152 6 225.5 -34t73.5 -132 q0 -172 -293 -172q-86 0 -150.5 9.5t-83.5 18.5l27 119q65 -24 176 -24q144 0 144 57q0 32 -58.5 44.5t-197.5 6.5l28 174q-112 6 -202.5 34t-165.5 82t-116.5 145.5t-41.5 213.5z" />
<glyph unicode="&#xe8;" horiz-adv-x="1396" d="M125 430v96q0 104 33 185t88 132.5t133 85t161.5 47t180.5 13.5q65 0 123.5 -6t118.5 -21t109.5 -38.5t93.5 -60.5t74 -84t47.5 -111.5t17.5 -141.5v-155h-910q42 -185 324 -185q156 0 250 24t155 85l168 -145q-95 -98 -235 -141.5t-338 -43.5q-97 0 -180.5 13.5 t-161.5 47t-132.5 85t-87 133t-32.5 186.5zM342 1368l131 182l408 -387l-88 -106zM387 535h655q-5 233 -321 233q-329 0 -334 -233z" />
<glyph unicode="&#xe9;" horiz-adv-x="1396" d="M125 430v96q0 104 33 185t88 132.5t133 85t161.5 47t180.5 13.5q65 0 123.5 -6t118.5 -21t109.5 -38.5t93.5 -60.5t74 -84t47.5 -111.5t17.5 -141.5v-155h-910q42 -185 324 -185q156 0 250 24t155 85l168 -145q-95 -98 -235 -141.5t-338 -43.5q-97 0 -180.5 13.5 t-161.5 47t-132.5 85t-87 133t-32.5 186.5zM387 535h655q-5 233 -321 233q-329 0 -334 -233zM575 1163l408 387l131 -182l-450 -311z" />
<glyph unicode="&#xea;" horiz-adv-x="1396" d="M125 430v96q0 104 33 185t88 132.5t133 85t161.5 47t180.5 13.5q65 0 123.5 -6t118.5 -21t109.5 -38.5t93.5 -60.5t74 -84t47.5 -111.5t17.5 -141.5v-155h-910q42 -185 324 -185q156 0 250 24t155 85l168 -145q-95 -98 -235 -141.5t-338 -43.5q-97 0 -180.5 13.5 t-161.5 47t-132.5 85t-87 133t-32.5 186.5zM266 1163l375 387h145l375 -387l-88 -106l-360 268l-359 -268zM387 535h655q-5 233 -321 233q-329 0 -334 -233z" />
<glyph unicode="&#xeb;" horiz-adv-x="1396" d="M125 430v96q0 104 33 185t88 132.5t133 85t161.5 47t180.5 13.5q65 0 123.5 -6t118.5 -21t109.5 -38.5t93.5 -60.5t74 -84t47.5 -111.5t17.5 -141.5v-155h-910q42 -185 324 -185q156 0 250 24t155 85l168 -145q-95 -98 -235 -141.5t-338 -43.5q-97 0 -180.5 13.5 t-161.5 47t-132.5 85t-87 133t-32.5 186.5zM279 1294q0 75 41.5 113.5t119.5 38.5t122 -39t44 -113q0 -76 -44.5 -118.5t-121.5 -42.5q-78 0 -119.5 42t-41.5 119zM387 535h655q-5 233 -321 233q-329 0 -334 -233zM821 1294q0 74 42.5 113t119.5 39q78 0 122 -39t44 -113 q0 -76 -44.5 -118.5t-121.5 -42.5t-119.5 42.5t-42.5 118.5z" />
<glyph unicode="&#xec;" horiz-adv-x="675" d="M-33 1368l131 182l408 -387l-88 -106zM207 0v956h262v-956h-262z" />
<glyph unicode="&#xed;" horiz-adv-x="675" d="M201 1163l407 387l131 -182l-450 -311zM207 0v956h262v-956h-262z" />
<glyph unicode="&#xee;" horiz-adv-x="675" d="M-109 1163l375 387h146l374 -387l-88 -106l-360 268l-358 -268zM207 0v956h262v-956h-262z" />
<glyph unicode="&#xef;" horiz-adv-x="675" d="M-96 1294q0 75 42 113.5t120 38.5t121.5 -39t43.5 -113q0 -76 -44 -118.5t-121 -42.5q-78 0 -120 42t-42 119zM207 0v956h262v-956h-262zM446 1294q0 74 42.5 113t119.5 39q78 0 122 -39t44 -113q0 -76 -44.5 -118.5t-121.5 -42.5t-119.5 42.5t-42.5 118.5z" />
<glyph unicode="&#xf0;" horiz-adv-x="1726" d="M94 401q0 201 164 286t512 85q453 0 576 -197v95q-3 250 -158 370l-324 -229l-73 102l276 193q-262 104 -834 24v240q724 80 1059 -106l279 196l74 -98l-244 -172q209 -185 209 -537v-41q0 -176 -51 -301t-154 -201t-247 -110.5t-341 -34.5q-175 0 -303.5 22t-225 72 t-145.5 135.5t-49 206.5zM358 395q0 -100 110 -148t363 -48q111 0 196 13t134.5 33t80.5 48t41.5 52.5t10.5 51.5q0 172 -475 172q-175 0 -277.5 -20t-143 -57t-40.5 -97z" />
<glyph unicode="&#xf1;" horiz-adv-x="1550" d="M207 0v956h242v-122q76 72 196 113.5t270 41.5q457 0 457 -422v-567h-262v502q0 77 -24 130t-67.5 79t-89.5 36.5t-104 10.5q-113 0 -206 -37t-150 -94v-627h-262zM342 1069q-13 208 57.5 314t192.5 106q27 0 49.5 -5t45 -17.5t35.5 -22t39.5 -31t39.5 -31.5 q10 -9 33.5 -32t34 -32t28.5 -18.5t35 -9.5q43 0 64 56t12 147h211q10 -204 -65 -314t-193 -110q-41 0 -79.5 17t-56.5 31.5t-59 51.5q-8 7 -28.5 27t-28 26t-22.5 17t-27.5 14.5t-26.5 3.5q-46 0 -67 -49t-15 -139h-209z" />
<glyph unicode="&#xf2;" horiz-adv-x="1511" d="M125 442v72q0 106 34 189t92 136t140 87.5t171.5 48.5t193.5 14t193 -14t171 -48.5t139.5 -87.5t92 -136t34.5 -189v-72q0 -107 -34.5 -190.5t-92 -136.5t-139.5 -87.5t-171 -48.5t-193 -14t-193.5 14t-171.5 48.5t-140 87.5t-92 136.5t-34 190.5zM385 1368l131 182 l408 -387l-88 -106zM387 455q0 -63 22 -111t57.5 -77.5t85 -48t99 -25.5t105.5 -7q71 0 131.5 12t116.5 40.5t88 83.5t32 133v49q0 62 -22 109.5t-57 76.5t-84.5 47t-99 24.5t-105.5 6.5t-105.5 -6.5t-99 -24.5t-85 -47t-57.5 -76.5t-22 -109.5v-49z" />
<glyph unicode="&#xf3;" horiz-adv-x="1511" d="M125 442v72q0 106 34 189t92 136t140 87.5t171.5 48.5t193.5 14t193 -14t171 -48.5t139.5 -87.5t92 -136t34.5 -189v-72q0 -107 -34.5 -190.5t-92 -136.5t-139.5 -87.5t-171 -48.5t-193 -14t-193.5 14t-171.5 48.5t-140 87.5t-92 136.5t-34 190.5zM387 455q0 -63 22 -111 t57.5 -77.5t85 -48t99 -25.5t105.5 -7q71 0 131.5 12t116.5 40.5t88 83.5t32 133v49q0 62 -22 109.5t-57 76.5t-84.5 47t-99 24.5t-105.5 6.5t-105.5 -6.5t-99 -24.5t-85 -47t-57.5 -76.5t-22 -109.5v-49zM618 1163l408 387l131 -182l-450 -311z" />
<glyph unicode="&#xf4;" horiz-adv-x="1511" d="M125 442v72q0 106 34 189t92 136t140 87.5t171.5 48.5t193.5 14t193 -14t171 -48.5t139.5 -87.5t92 -136t34.5 -189v-72q0 -107 -34.5 -190.5t-92 -136.5t-139.5 -87.5t-171 -48.5t-193 -14t-193.5 14t-171.5 48.5t-140 87.5t-92 136.5t-34 190.5zM309 1163l375 387h145 l375 -387l-88 -106l-360 268l-359 -268zM387 455q0 -63 22 -111t57.5 -77.5t85 -48t99 -25.5t105.5 -7q71 0 131.5 12t116.5 40.5t88 83.5t32 133v49q0 62 -22 109.5t-57 76.5t-84.5 47t-99 24.5t-105.5 6.5t-105.5 -6.5t-99 -24.5t-85 -47t-57.5 -76.5t-22 -109.5v-49z" />
<glyph unicode="&#xf5;" horiz-adv-x="1511" d="M125 442v72q0 106 34 189t92 136t140 87.5t171.5 48.5t193.5 14t193 -14t171 -48.5t139.5 -87.5t92 -136t34.5 -189v-72q0 -107 -34.5 -190.5t-92 -136.5t-139.5 -87.5t-171 -48.5t-193 -14t-193.5 14t-171.5 48.5t-140 87.5t-92 136.5t-34 190.5zM303 1069 q-13 208 58 314t192 106q27 0 49.5 -5t45 -17.5t35.5 -22t39.5 -31t39.5 -31.5q10 -9 33.5 -32t34 -32t28.5 -18.5t35 -9.5q43 0 64 56t12 147h211q10 -204 -65 -314t-193 -110q-41 0 -79.5 17t-56.5 31.5t-59 51.5q-8 7 -28.5 27t-28 26t-22.5 17t-27.5 14.5t-26.5 3.5 q-46 0 -67 -49t-15 -139h-209zM387 455q0 -63 22 -111t57.5 -77.5t85 -48t99 -25.5t105.5 -7q71 0 131.5 12t116.5 40.5t88 83.5t32 133v49q0 62 -22 109.5t-57 76.5t-84.5 47t-99 24.5t-105.5 6.5t-105.5 -6.5t-99 -24.5t-85 -47t-57.5 -76.5t-22 -109.5v-49z" />
<glyph unicode="&#xf6;" horiz-adv-x="1511" d="M125 442v72q0 106 34 189t92 136t140 87.5t171.5 48.5t193.5 14t193 -14t171 -48.5t139.5 -87.5t92 -136t34.5 -189v-72q0 -107 -34.5 -190.5t-92 -136.5t-139.5 -87.5t-171 -48.5t-193 -14t-193.5 14t-171.5 48.5t-140 87.5t-92 136.5t-34 190.5zM322 1294 q0 75 41.5 113.5t119.5 38.5t122 -39t44 -113q0 -76 -44.5 -118.5t-121.5 -42.5q-78 0 -119.5 42t-41.5 119zM387 455q0 -63 22 -111t57.5 -77.5t85 -48t99 -25.5t105.5 -7q71 0 131.5 12t116.5 40.5t88 83.5t32 133v49q0 62 -22 109.5t-57 76.5t-84.5 47t-99 24.5 t-105.5 6.5t-105.5 -6.5t-99 -24.5t-85 -47t-57.5 -76.5t-22 -109.5v-49zM864 1294q0 74 42.5 113t119.5 39q78 0 122 -39t44 -113q0 -76 -44.5 -118.5t-121.5 -42.5t-119.5 42.5t-42.5 118.5z" />
<glyph unicode="&#xf7;" horiz-adv-x="1404" d="M66 551v186h1273v-186h-1273zM504 285q0 63 44 93t150 30t152.5 -30t46.5 -93q0 -64 -46.5 -96t-152.5 -31q-106 0 -150 31.5t-44 95.5zM506 1006q0 64 43 93t149 29q107 0 153 -29.5t46 -92.5q0 -64 -46.5 -96.5t-152.5 -32.5t-149 32t-43 97z" />
<glyph unicode="&#xf8;" horiz-adv-x="1511" d="M61 102l127 91q-63 101 -63 249v72q0 106 34 189t92 136t140 87.5t171.5 48.5t193.5 14q263 0 420 -90l129 92l147 -164l-119 -84q53 -92 53 -229v-72q0 -107 -34.5 -190.5t-92 -136.5t-139.5 -87.5t-171 -48.5t-193 -14q-246 0 -402 80l-145 -104zM387 455 q0 -58 19 -107l546 391q-86 29 -196 29q-56 0 -105.5 -6.5t-99 -24.5t-85 -47t-57.5 -76.5t-22 -109.5v-49zM584 207q79 -21 172 -21q71 0 131.5 12t116.5 40.5t88 83.5t32 133v49q0 40 -10 82z" />
<glyph unicode="&#xf9;" horiz-adv-x="1548" d="M193 387v567h262v-501q0 -62 16.5 -109t43 -74.5t64.5 -44t75.5 -22.5t82.5 -6q112 0 202.5 37t147.5 94v626h263v-956h-242v123q-76 -73 -195 -114.5t-266 -41.5q-454 0 -454 422zM403 1368l132 182l407 -387l-88 -106z" />
<glyph unicode="&#xfa;" horiz-adv-x="1548" d="M193 387v567h262v-501q0 -62 16.5 -109t43 -74.5t64.5 -44t75.5 -22.5t82.5 -6q112 0 202.5 37t147.5 94v626h263v-956h-242v123q-76 -73 -195 -114.5t-266 -41.5q-454 0 -454 422zM637 1163l407 387l132 -182l-451 -311z" />
<glyph unicode="&#xfb;" horiz-adv-x="1548" d="M193 387v567h262v-501q0 -62 16.5 -109t43 -74.5t64.5 -44t75.5 -22.5t82.5 -6q112 0 202.5 37t147.5 94v626h263v-956h-242v123q-76 -73 -195 -114.5t-266 -41.5q-454 0 -454 422zM328 1163l374 387h146l375 -387l-88 -106l-361 268l-358 -268z" />
<glyph unicode="&#xfc;" horiz-adv-x="1548" d="M193 387v567h262v-501q0 -62 16.5 -109t43 -74.5t64.5 -44t75.5 -22.5t82.5 -6q112 0 202.5 37t147.5 94v626h263v-956h-242v123q-76 -73 -195 -114.5t-266 -41.5q-454 0 -454 422zM340 1294q0 75 42 113.5t120 38.5t122 -39t44 -113q0 -76 -44.5 -118.5t-121.5 -42.5 q-78 0 -120 42t-42 119zM883 1294q0 74 42 113t119 39q78 0 122 -39t44 -113q0 -76 -44.5 -118.5t-121.5 -42.5q-76 0 -118.5 42.5t-42.5 118.5z" />
<glyph unicode="&#xfd;" horiz-adv-x="1439" d="M29 956h323l359 -729l376 729h324l-756 -1349h-278l198 360zM584 1163l407 387l131 -182l-450 -311z" />
<glyph unicode="&#xfe;" horiz-adv-x="1632" d="M188 -393v1923h254v-703q140 162 492 162q96 0 178 -14t156 -48.5t126 -87.5t82.5 -136t30.5 -189v-72q0 -107 -30.5 -190t-83 -136.5t-128 -88t-159.5 -48.5t-184 -14q-332 0 -471 133v-491h-263zM451 401q11 -63 47.5 -106.5t95.5 -66.5t125.5 -32.5t152.5 -9.5 q72 0 133.5 12t118 40.5t89 83.5t32.5 133v49q0 62 -22.5 109.5t-58 76.5t-85.5 47t-100 24.5t-107 6.5q-378 0 -421 -209v-158z" />
<glyph unicode="&#xff;" horiz-adv-x="1439" d="M29 956h323l359 -729l376 729h324l-756 -1349h-278l198 360zM287 1294q0 75 42 113.5t120 38.5t121.5 -39t43.5 -113q0 -76 -44 -118.5t-121 -42.5q-78 0 -120 42t-42 119zM829 1294q0 74 42.5 113t119.5 39q78 0 122 -39t44 -113q0 -76 -44.5 -118.5t-121.5 -42.5 t-119.5 42.5t-42.5 118.5z" />
<glyph unicode="&#x100;" horiz-adv-x="1738" d="M61 0l644 1389h327l645 -1389h-293l-106 238h-819l-105 -238h-293zM379 1624v211h981v-211h-981zM553 451h631l-316 708z" />
<glyph unicode="&#x101;" horiz-adv-x="1415" d="M123 266q0 153 95.5 227t297.5 74h471q-14 113 -99.5 157t-240.5 44q-134 0 -225.5 -28.5t-179.5 -96.5l-99 193q195 153 553 153q99 0 177 -10.5t151 -39t121.5 -74.5t77 -121t28.5 -175v-569h-237v139q-137 -174 -504 -174q-387 0 -387 301zM199 1202v211h981v-211 h-981zM387 279q0 -115 182 -115q353 0 420 164v49h-469q-133 0 -133 -98z" />
<glyph unicode="&#x102;" horiz-adv-x="1738" d="M61 0l644 1389h327l645 -1389h-293l-106 238h-819l-105 -238h-293zM408 1919h235q0 -103 57.5 -177.5t171.5 -74.5q59 0 104 21.5t70 58.5t37.5 80.5t12.5 91.5h237q0 -94 -28 -173t-82.5 -141t-144.5 -97t-206 -35t-206.5 35t-146 97t-83.5 141.5t-28 172.5zM553 451 h631l-316 708z" />
<glyph unicode="&#x103;" horiz-adv-x="1415" d="M123 266q0 153 95.5 227t297.5 74h471q-14 113 -99.5 157t-240.5 44q-134 0 -225.5 -28.5t-179.5 -96.5l-99 193q195 153 553 153q99 0 177 -10.5t151 -39t121.5 -74.5t77 -121t28.5 -175v-569h-237v139q-137 -174 -504 -174q-387 0 -387 301zM227 1497h236 q0 -103 57.5 -177.5t171.5 -74.5q78 0 130 38.5t72.5 93t20.5 120.5h238q0 -94 -28 -173t-82.5 -141t-144.5 -97t-206 -35t-206.5 35t-146 96.5t-84 141.5t-28.5 173zM387 279q0 -115 182 -115q353 0 420 164v49h-469q-133 0 -133 -98z" />
<glyph unicode="&#x104;" horiz-adv-x="1738" d="M61 0l644 1389h327l643 -1383l4 -6q-147 -33 -232 -88t-85 -113q0 -63 108 -63q94 0 172 26l11 -159q-121 -29 -234 -29q-139 0 -201.5 43.5t-62.5 132.5q0 82 62 147t165 107l-104 234h-819l-105 -238h-293zM553 451h631l-316 708z" />
<glyph unicode="&#x105;" horiz-adv-x="1415" d="M123 266q0 153 95.5 227t297.5 74h471q-14 113 -99.5 157t-240.5 44q-134 0 -225.5 -28.5t-179.5 -96.5l-99 193q195 153 553 153q99 0 177 -10.5t151 -39t121.5 -74.5t77 -121t28.5 -175v-567l2 -2q-159 -49 -238 -96.5t-79 -106.5t108 -59q95 0 173 26l10 -159 q-97 -31 -234 -31q-138 0 -201 44t-63 132q0 92 78.5 156.5t206.5 103.5v129q-137 -174 -504 -174q-387 0 -387 301zM387 279q0 -115 182 -115q353 0 420 164v49h-469q-133 0 -133 -98z" />
<glyph unicode="&#x106;" d="M127 651v78q0 347 204 515.5t589 168.5q124 0 229 -16t204.5 -53.5t181.5 -105t140 -163.5l-200 -168q-94 135 -227.5 198.5t-327.5 63.5q-119 0 -213 -24t-165.5 -75t-110 -136.5t-38.5 -202.5v-82q0 -117 38.5 -203t110 -137t165.5 -75.5t213 -24.5q206 0 340.5 66 t228.5 219l207 -158q-117 -190 -307.5 -280.5t-468.5 -90.5q-386 0 -589.5 168.5t-203.5 517.5zM758 1585l407 387l131 -182l-450 -311z" />
<glyph unicode="&#x107;" horiz-adv-x="1449" d="M125 442v72q0 107 33 189.5t89 135.5t136.5 87.5t170 48.5t196.5 14q179 0 311.5 -37.5t241.5 -134.5l-154 -172q-125 123 -393 123q-369 0 -369 -264v-49q0 -269 375 -269q268 0 403 138l135 -174q-97 -103 -238 -144t-337 -41q-98 0 -183 14t-163 48.5t-133 87.5 t-88 136.5t-33 190.5zM588 1163l407 387l131 -182l-450 -311z" />
<glyph unicode="&#x10a;" d="M127 651v78q0 347 204 515.5t589 168.5q124 0 229 -16t204.5 -53.5t181.5 -105t140 -163.5l-200 -168q-94 135 -227.5 198.5t-327.5 63.5q-119 0 -213 -24t-165.5 -75t-110 -136.5t-38.5 -202.5v-82q0 -117 38.5 -203t110 -137t165.5 -75.5t213 -24.5q206 0 340.5 66 t228.5 219l207 -158q-117 -190 -307.5 -280.5t-468.5 -90.5q-386 0 -589.5 168.5t-203.5 517.5zM731 1720q0 73 41.5 111.5t118.5 38.5q79 0 123.5 -38.5t44.5 -111.5q0 -77 -44.5 -119t-123.5 -42q-77 0 -118.5 41.5t-41.5 119.5z" />
<glyph unicode="&#x10b;" horiz-adv-x="1449" d="M125 442v72q0 107 33 189.5t89 135.5t136.5 87.5t170 48.5t196.5 14q179 0 311.5 -37.5t241.5 -134.5l-154 -172q-125 123 -393 123q-369 0 -369 -264v-49q0 -269 375 -269q268 0 403 138l135 -174q-97 -103 -238 -144t-337 -41q-98 0 -183 14t-163 48.5t-133 87.5 t-88 136.5t-33 190.5zM561 1298q0 73 41.5 111.5t118.5 38.5q79 0 123.5 -38.5t44.5 -111.5q0 -77 -44.5 -119t-123.5 -42q-77 0 -118.5 41.5t-41.5 119.5z" />
<glyph unicode="&#x10c;" d="M127 651v78q0 347 204 515.5t589 168.5q124 0 229 -16t204.5 -53.5t181.5 -105t140 -163.5l-200 -168q-94 135 -227.5 198.5t-327.5 63.5q-119 0 -213 -24t-165.5 -75t-110 -136.5t-38.5 -202.5v-82q0 -117 38.5 -203t110 -137t165.5 -75.5t213 -24.5q206 0 340.5 66 t228.5 219l207 -158q-117 -190 -307.5 -280.5t-468.5 -90.5q-386 0 -589.5 168.5t-203.5 517.5zM449 1868l88 104l358 -268l360 268l88 -104l-374 -389h-146z" />
<glyph unicode="&#x10d;" horiz-adv-x="1449" d="M125 442v72q0 107 33 189.5t89 135.5t136.5 87.5t170 48.5t196.5 14q179 0 311.5 -37.5t241.5 -134.5l-154 -172q-125 123 -393 123q-369 0 -369 -264v-49q0 -269 375 -269q268 0 403 138l135 -174q-97 -103 -238 -144t-337 -41q-98 0 -183 14t-163 48.5t-133 87.5 t-88 136.5t-33 190.5zM279 1446l88 104l358 -268l360 268l89 -104l-375 -389h-146z" />
<glyph unicode="&#x10e;" horiz-adv-x="1865" d="M217 0v1378h748q375 0 575.5 -160.5t200.5 -492.5v-70q0 -172 -52 -298t-153.5 -204t-243 -115.5t-327.5 -37.5h-748zM481 244h484q255 0 382.5 94t127.5 315v74q0 215 -128.5 311.5t-381.5 96.5h-484v-891zM494 1868l88 104l358 -268l360 268l89 -104l-375 -389h-146z " />
<glyph unicode="&#x10f;" horiz-adv-x="1783" d="M125 442v72q0 106 31.5 189t85 136t129.5 87.5t159 48.5t179 14q333 0 479 -151v692h262v-1530h-221l-8 172q-141 -207 -514 -207q-105 0 -190.5 14t-160 48.5t-124.5 88t-78.5 136t-28.5 190.5zM387 455q0 -63 22 -111t57.5 -77.5t85 -48t99 -25.5t105.5 -7 q67 0 129 8.5t123.5 27t108.5 54t71 84.5v242q-20 48 -66.5 82t-108.5 51.5t-124.5 25t-132.5 7.5q-56 0 -105.5 -6.5t-99 -24.5t-85 -47t-57.5 -76.5t-22 -109.5v-49zM1634 954l35 578l221 -39l-121 -557z" />
<glyph unicode="&#x110;" horiz-adv-x="1878" d="M82 584v211h135v583h748q375 0 575.5 -160.5t200.5 -492.5v-70q0 -172 -52 -298t-153.5 -204t-243 -115.5t-327.5 -37.5h-748v584h-135zM481 244h484q255 0 382.5 94t127.5 315v74q0 215 -128.5 311.5t-381.5 96.5h-484v-340h588v-211h-588v-340z" />
<glyph unicode="&#x111;" horiz-adv-x="1748" d="M125 442v72q0 106 31.5 189t85 136t129.5 87.5t159 48.5t179 14q333 0 479 -151v342h-711v211h711v139h262v-139h164v-211h-164v-1180h-221l-8 172q-141 -207 -514 -207q-105 0 -190.5 14t-160 48.5t-124.5 88t-78.5 136t-28.5 190.5zM387 455q0 -63 22 -111t57.5 -77.5 t85 -48t99 -25.5t105.5 -7q67 0 129 8.5t123.5 27t108.5 54t71 84.5v242q-20 48 -66.5 82t-108.5 51.5t-124.5 25t-132.5 7.5q-56 0 -105.5 -6.5t-99 -24.5t-85 -47t-57.5 -76.5t-22 -109.5v-49z" />
<glyph unicode="&#x112;" horiz-adv-x="1650" d="M217 0v1378h1319v-237h-1055v-332h846v-209h-846v-360h1065v-240h-1329zM385 1624v211h981v-211h-981z" />
<glyph unicode="&#x113;" horiz-adv-x="1396" d="M125 430v96q0 104 33 185t88 132.5t133 85t161.5 47t180.5 13.5q65 0 123.5 -6t118.5 -21t109.5 -38.5t93.5 -60.5t74 -84t47.5 -111.5t17.5 -141.5v-155h-910q42 -185 324 -185q156 0 250 24t155 85l168 -145q-95 -98 -235 -141.5t-338 -43.5q-97 0 -180.5 13.5 t-161.5 47t-132.5 85t-87 133t-32.5 186.5zM221 1202v211h981v-211h-981zM387 535h655q-5 233 -321 233q-329 0 -334 -233z" />
<glyph unicode="&#x116;" horiz-adv-x="1650" d="M217 0v1378h1319v-237h-1055v-332h846v-209h-846v-360h1065v-240h-1329zM713 1720q0 73 41 111.5t118 38.5q79 0 123.5 -38.5t44.5 -111.5q0 -77 -44.5 -119t-123.5 -42q-77 0 -118 41.5t-41 119.5z" />
<glyph unicode="&#x117;" horiz-adv-x="1396" d="M125 430v96q0 104 33 185t88 132.5t133 85t161.5 47t180.5 13.5q65 0 123.5 -6t118.5 -21t109.5 -38.5t93.5 -60.5t74 -84t47.5 -111.5t17.5 -141.5v-155h-910q42 -185 324 -185q156 0 250 24t155 85l168 -145q-95 -98 -235 -141.5t-338 -43.5q-97 0 -180.5 13.5 t-161.5 47t-132.5 85t-87 133t-32.5 186.5zM387 535h655q-5 233 -321 233q-329 0 -334 -233zM549 1298q0 73 41.5 111.5t118.5 38.5q79 0 123.5 -38.5t44.5 -111.5q0 -77 -44.5 -119t-123.5 -42q-77 0 -118.5 41.5t-41.5 119.5z" />
<glyph unicode="&#x118;" horiz-adv-x="1650" d="M217 0v1378h1319v-237h-1055v-332h846v-209h-846v-360h1065v-238l2 -2q-147 -33 -232 -88t-85 -113q0 -63 108 -63q94 0 172 26l11 -159q-121 -29 -234 -29q-139 0 -201.5 43.5t-62.5 132.5q0 81 58.5 144.5t158.5 105.5h-1024z" />
<glyph unicode="&#x119;" horiz-adv-x="1396" d="M125 430v96q0 104 33 185t88 132.5t133 85t161.5 47t180.5 13.5q65 0 123.5 -6t118.5 -21t109.5 -38.5t93.5 -60.5t74 -84t47.5 -111.5t17.5 -141.5v-155h-910q42 -185 324 -185q156 0 250 24t155 85l168 -145q-108 -111 -280 -154q-122 -42 -182 -84t-60 -94 q0 -60 109 -60q91 0 172 27l10 -160q-97 -31 -234 -31q-138 0 -201 44.5t-63 132.5q0 116 133 194q-95 2 -175.5 16.5t-155 48.5t-126.5 85.5t-83 131.5t-31 183zM387 535h655q-5 233 -321 233q-329 0 -334 -233z" />
<glyph unicode="&#x11a;" horiz-adv-x="1650" d="M217 0v1378h1319v-237h-1055v-332h846v-209h-846v-360h1065v-240h-1329zM430 1868l88 104l359 -268l360 268l88 -104l-375 -389h-145z" />
<glyph unicode="&#x11b;" horiz-adv-x="1396" d="M125 430v96q0 104 33 185t88 132.5t133 85t161.5 47t180.5 13.5q65 0 123.5 -6t118.5 -21t109.5 -38.5t93.5 -60.5t74 -84t47.5 -111.5t17.5 -141.5v-155h-910q42 -185 324 -185q156 0 250 24t155 85l168 -145q-95 -98 -235 -141.5t-338 -43.5q-97 0 -180.5 13.5 t-161.5 47t-132.5 85t-87 133t-32.5 186.5zM266 1446l88 104l359 -268l360 268l88 -104l-375 -389h-145zM387 535h655q-5 233 -321 233q-329 0 -334 -233z" />
<glyph unicode="&#x11e;" horiz-adv-x="1806" d="M127 651v78q0 347 204 515.5t589 168.5q243 0 421 -63t326 -211l-168 -209q-198 239 -579 239q-119 0 -213 -24t-165.5 -75t-110 -136.5t-38.5 -202.5v-82q0 -118 39 -203t114.5 -137t178 -76t236.5 -24q310 0 450 108v220h-672v208h938v-569q-247 -211 -751 -211 q-799 0 -799 686zM432 1919h236q0 -103 57.5 -177.5t171.5 -74.5q78 0 130 38.5t72.5 93t20.5 120.5h238q0 -94 -28 -173t-82.5 -141t-144.5 -97t-206 -35t-206.5 35t-146 96.5t-84 141.5t-28.5 173z" />
<glyph unicode="&#x11f;" horiz-adv-x="1454" d="M96 461v69q0 105 28.5 186t76 131.5t114.5 83t138.5 45.5t154.5 13q163 0 279.5 -42.5t165.5 -131.5v141h247v-880q0 -105 -21 -186t-62.5 -135.5t-95 -91t-128.5 -56t-151 -27.5t-174 -8q-185 0 -320 41.5t-201 118.5l91 186q67 -65 175.5 -103t223.5 -38q54 0 95 3.5 t90.5 13t84.5 30t66 52t47 82t16 116.5v55q-140 -129 -426 -129q-86 0 -157.5 12t-139.5 43.5t-114.5 82.5t-74.5 133t-28 190zM295 1497h235q0 -103 58 -177.5t172 -74.5q78 0 130 38.5t72.5 93t20.5 120.5h238q0 -94 -28 -173t-82.5 -141t-144.5 -97t-206 -35t-206.5 35 t-146 96.5t-84 141.5t-28.5 173zM358 465q0 -58 19 -102.5t50 -73t75.5 -46.5t91 -25t100.5 -7q61 0 115 9t101.5 28.5t80.5 53.5t45 81v225q-50 162 -346 162q-53 0 -98.5 -7t-89.5 -25t-75 -46t-50 -73t-19 -103v-51z" />
<glyph unicode="&#x120;" horiz-adv-x="1806" d="M127 651v78q0 347 204 515.5t589 168.5q243 0 421 -63t326 -211l-168 -209q-198 239 -579 239q-119 0 -213 -24t-165.5 -75t-110 -136.5t-38.5 -202.5v-82q0 -118 39 -203t114.5 -137t178 -76t236.5 -24q310 0 450 108v220h-672v208h938v-569q-247 -211 -751 -211 q-799 0 -799 686zM731 1720q0 73 41.5 111.5t118.5 38.5q79 0 123.5 -38.5t44.5 -111.5q0 -77 -44.5 -119t-123.5 -42q-77 0 -118.5 41.5t-41.5 119.5z" />
<glyph unicode="&#x121;" horiz-adv-x="1454" d="M96 461v69q0 105 28.5 186t76 131.5t114.5 83t138.5 45.5t154.5 13q163 0 279.5 -42.5t165.5 -131.5v141h247v-880q0 -105 -21 -186t-62.5 -135.5t-95 -91t-128.5 -56t-151 -27.5t-174 -8q-185 0 -320 41.5t-201 118.5l91 186q67 -65 175.5 -103t223.5 -38q54 0 95 3.5 t90.5 13t84.5 30t66 52t47 82t16 116.5v55q-140 -129 -426 -129q-86 0 -157.5 12t-139.5 43.5t-114.5 82.5t-74.5 133t-28 190zM358 465q0 -58 19 -102.5t50 -73t75.5 -46.5t91 -25t100.5 -7q61 0 115 9t101.5 28.5t80.5 53.5t45 81v225q-50 162 -346 162q-53 0 -98.5 -7 t-89.5 -25t-75 -46t-50 -73t-19 -103v-51zM594 1298q0 73 41.5 111.5t118.5 38.5q79 0 123.5 -38.5t44.5 -111.5q0 -77 -44.5 -119t-123.5 -42q-77 0 -118.5 41.5t-41.5 119.5z" />
<glyph unicode="&#x122;" horiz-adv-x="1806" d="M127 651v78q0 347 204 515.5t589 168.5q243 0 421 -63t326 -211l-168 -209q-198 239 -579 239q-119 0 -213 -24t-165.5 -75t-110 -136.5t-38.5 -202.5v-82q0 -118 39 -203t114.5 -137t178 -76t236.5 -24q310 0 450 108v220h-672v208h938v-569q-247 -211 -751 -211 q-799 0 -799 686zM647 -584l19 138q192 -32 272 3.5t80 133.5q0 55 -39 86q-7 -109 -141 -109q-64 0 -104 27.5t-40 81.5q0 60 46.5 95.5t140.5 35.5q137 0 217 -62t80 -172q0 -159 -139 -225.5t-392 -32.5z" />
<glyph unicode="&#x123;" horiz-adv-x="1454" d="M96 461v69q0 105 28.5 186t76 131.5t114.5 83t138.5 45.5t154.5 13q163 0 279.5 -42.5t165.5 -131.5v141h247v-880q0 -105 -21 -186t-62.5 -135.5t-95 -91t-128.5 -56t-151 -27.5t-174 -8q-185 0 -320 41.5t-201 118.5l91 186q67 -65 175.5 -103t223.5 -38q54 0 95 3.5 t90.5 13t84.5 30t66 52t47 82t16 116.5v55q-140 -129 -426 -129q-86 0 -157.5 12t-139.5 43.5t-114.5 82.5t-74.5 133t-28 190zM358 465q0 -58 19 -102.5t50 -73t75.5 -46.5t91 -25t100.5 -7q61 0 115 9t101.5 28.5t80.5 53.5t45 81v225q-50 162 -346 162q-53 0 -98.5 -7 t-89.5 -25t-75 -46t-50 -73t-19 -103v-51zM487 1317q0 159 139 225.5t392 32.5l-19 -137q-192 32 -272 -4t-80 -134q0 -55 39 -86q7 109 141 109q64 0 104 -27.5t40 -81.5q0 -60 -46.5 -95.5t-140.5 -35.5q-137 0 -217 62t-80 172z" />
<glyph unicode="&#x126;" horiz-adv-x="1886" d="M106 942v195h125v241h265v-241h893v241h266v-241h123v-195h-123v-942h-266v471h-893v-471h-265v942h-125zM496 709h893v233h-893v-233z" />
<glyph unicode="&#x127;" horiz-adv-x="1228" d="M74 1157v211h125v162h241v-162h561v-211h-561v-323q75 72 196.5 113.5t270.5 41.5q72 0 133.5 -10.5t122.5 -39.5t103.5 -74.5t69 -121.5t26.5 -176v-567h-262v502q0 256 -283 256q-114 0 -206.5 -37t-149.5 -94v-627h-262v1157h-125z" />
<glyph unicode="&#x12a;" horiz-adv-x="698" d="M-141 1624v211h981v-211h-981zM217 0v1378h264v-1378h-264z" />
<glyph unicode="&#x12b;" horiz-adv-x="675" d="M-154 1202v211h981v-211h-981zM207 0v956h262v-956h-262z" />
<glyph unicode="&#x12e;" horiz-adv-x="698" d="M41 -242q0 76 54 138t145 104h-23v1378h264v-1310q20 4 31 4l53 -64q-147 -33 -232 -88t-85 -113q0 -63 108 -63q91 0 172 27l11 -160q-121 -29 -234 -29q-139 0 -201.5 43.5t-62.5 132.5z" />
<glyph unicode="&#x12f;" horiz-adv-x="675" d="M-53 -250q0 163 260 252v954h262v-954l2 -2q-159 -49 -238 -96.5t-79 -106.5t108 -59q94 0 172 26l10 -159q-97 -31 -233 -31q-138 0 -201 44t-63 132zM174 1298q0 73 41.5 111.5t118.5 38.5q79 0 123.5 -38.5t44.5 -111.5q0 -77 -44.5 -119t-123.5 -42 q-77 0 -118.5 41.5t-41.5 119.5z" />
<glyph unicode="&#x130;" horiz-adv-x="698" d="M186 1720q0 73 41.5 111.5t118.5 38.5q79 0 123.5 -38.5t44.5 -111.5q0 -77 -44.5 -119t-123.5 -42q-77 0 -118.5 41.5t-41.5 119.5zM217 0v1378h264v-1378h-264z" />
<glyph unicode="&#x131;" horiz-adv-x="675" d="M207 0v956h262v-956h-262z" />
<glyph unicode="&#x136;" horiz-adv-x="1730" d="M217 0v1378h264v-700l852 698h334l-620 -526l622 -850h-330l-495 678l-363 -307v-371h-264zM682 -584l18 138q100 -15 168 -15t109 20.5t58.5 52t17.5 79.5q0 55 -39 86q-7 -109 -142 -109q-64 0 -103.5 27.5t-39.5 81.5q0 60 46 95.5t140 35.5q137 0 217 -62t80 -172 q0 -159 -138.5 -225.5t-391.5 -32.5z" />
<glyph unicode="&#x137;" horiz-adv-x="1400" d="M188 0v1518h263v-979l528 417h346l-410 -333l433 -623h-322l-309 461l-266 -217v-244h-263zM453 -584l18 138q192 -32 272 3.5t80 133.5q0 55 -39 86q-7 -109 -141 -109q-64 0 -103.5 27.5t-39.5 81.5q0 60 46 95.5t140 35.5q137 0 217 -62t80 -172q0 -159 -138.5 -225.5 t-391.5 -32.5z" />
<glyph unicode="&#x139;" horiz-adv-x="1464" d="M213 1585l408 387l131 -182l-451 -311zM217 0v1378h264v-1134h912v-244h-1176z" />
<glyph unicode="&#x13a;" horiz-adv-x="657" d="M193 1737l407 387l131 -182l-450 -312zM199 0v1530h262v-1530h-262z" />
<glyph unicode="&#x13b;" horiz-adv-x="1464" d="M217 0v1378h264v-1134h912v-244h-1176zM483 -584l19 138q192 -32 272 3.5t80 133.5q0 55 -39 86q-7 -109 -141 -109q-64 0 -104 27.5t-40 81.5q0 60 46.5 95.5t140.5 35.5q137 0 217 -62t80 -172q0 -159 -139 -225.5t-392 -32.5z" />
<glyph unicode="&#x13c;" horiz-adv-x="657" d="M92 -584l19 138q192 -32 272 3.5t80 133.5q0 55 -39 86q-7 -109 -141 -109q-64 0 -104 27.5t-40 81.5q0 60 46.5 95.5t140.5 35.5q137 0 217 -62t80 -172q0 -159 -139 -225.5t-392 -32.5zM199 0v1530h262v-1530h-262z" />
<glyph unicode="&#x13d;" horiz-adv-x="1464" d="M217 0v1378h264v-1134h912v-244h-1176zM874 805l35 577l221 -39l-120 -557z" />
<glyph unicode="&#x13e;" horiz-adv-x="716" d="M199 0v1530h262v-1530h-262zM606 958l35 578l221 -39l-121 -557z" />
<glyph unicode="&#x141;" horiz-adv-x="1464" d="M-96 530l313 172v676h264v-530l416 229l102 -184l-518 -285v-364h912v-244h-1176v463l-213 -117z" />
<glyph unicode="&#x142;" horiz-adv-x="962" d="M-53 602l407 225v703h262v-559l324 178l102 -184l-426 -234v-731h-262v586l-307 -168z" />
<glyph unicode="&#x143;" horiz-adv-x="1835" d="M217 0v1378h264l877 -1003v1003h260v-1378h-264l-877 1006v-1006h-260zM780 1585l408 387l131 -182l-451 -311z" />
<glyph unicode="&#x144;" horiz-adv-x="1550" d="M207 0v956h242v-122q76 72 196 113.5t270 41.5q457 0 457 -422v-567h-262v502q0 77 -24 130t-67.5 79t-89.5 36.5t-104 10.5q-113 0 -206 -37t-150 -94v-627h-262zM657 1163l408 387l131 -182l-451 -311z" />
<glyph unicode="&#x145;" horiz-adv-x="1835" d="M217 0v1378h264l877 -1003v1003h260v-1378h-264l-877 1006v-1006h-260zM670 -584l18 138q192 -32 272 3.5t80 133.5q0 55 -39 86q-7 -109 -141 -109q-64 0 -103.5 27.5t-39.5 81.5q0 60 46 95.5t140 35.5q137 0 217 -62t80 -172q0 -159 -138.5 -225.5t-391.5 -32.5z" />
<glyph unicode="&#x146;" horiz-adv-x="1550" d="M207 0v956h242v-122q76 72 196 113.5t270 41.5q457 0 457 -422v-567h-262v502q0 77 -24 130t-67.5 79t-89.5 36.5t-104 10.5q-113 0 -206 -37t-150 -94v-627h-262zM528 -584l19 138q192 -32 272 3.5t80 133.5q0 55 -39 86q-7 -109 -141 -109q-64 0 -104 27.5t-40 81.5 q0 60 46.5 95.5t140.5 35.5q137 0 217 -62t80 -172q0 -159 -139 -225.5t-392 -32.5z" />
<glyph unicode="&#x147;" horiz-adv-x="1835" d="M217 0v1378h264l877 -1003v1003h260v-1378h-264l-877 1006v-1006h-260zM471 1868l88 104l359 -268l360 268l88 -104l-375 -389h-145z" />
<glyph unicode="&#x148;" horiz-adv-x="1550" d="M207 0v956h242v-122q76 72 196 113.5t270 41.5q457 0 457 -422v-567h-262v502q0 77 -24 130t-67.5 79t-89.5 36.5t-104 10.5q-113 0 -206 -37t-150 -94v-627h-262zM348 1446l88 104l359 -268l360 268l88 -104l-375 -389h-145z" />
<glyph unicode="&#x14a;" horiz-adv-x="1835" d="M217 0v1378h264l879 -995l-2 995h260v-1200q0 -169 -38.5 -289.5t-115 -192t-180 -104t-242.5 -32.5q-272 0 -467 143l117 211q87 -73 159.5 -101t172.5 -28q130 0 210 49.5t109 171.5l-866 977v-983h-260z" />
<glyph unicode="&#x14b;" horiz-adv-x="1550" d="M207 0v956h242v-122q76 72 196 113.5t270 41.5q457 0 457 -422v-456q0 -128 -30.5 -224t-83 -156.5t-132 -97.5t-168 -51t-200.5 -14l-21 219q87 0 150 13.5t116 48t80 99.5t27 161v393q0 77 -24 130t-67.5 79t-89.5 36.5t-104 10.5q-113 0 -206 -37t-150 -94v-627h-262z " />
<glyph unicode="&#x14c;" horiz-adv-x="1902" d="M127 651v78q0 347 211.5 515.5t607.5 168.5q400 0 615 -168.5t215 -515.5v-78q0 -348 -215 -517t-615 -169q-396 0 -607.5 169t-211.5 517zM393 649q0 -117 40.5 -203t116 -137t174 -75.5t222.5 -24.5q127 0 227 24.5t177 75.5t118 137t41 203v82q0 117 -41 202.5 t-118 136.5t-177 75t-227 24q-124 0 -222.5 -24t-174 -75t-116 -136.5t-40.5 -202.5v-82zM459 1624v211h981v-211h-981z" />
<glyph unicode="&#x14d;" horiz-adv-x="1511" d="M125 442v72q0 106 34 189t92 136t140 87.5t171.5 48.5t193.5 14t193 -14t171 -48.5t139.5 -87.5t92 -136t34.5 -189v-72q0 -107 -34.5 -190.5t-92 -136.5t-139.5 -87.5t-171 -48.5t-193 -14t-193.5 14t-171.5 48.5t-140 87.5t-92 136.5t-34 190.5zM264 1202v211h981v-211 h-981zM387 455q0 -63 22 -111t57.5 -77.5t85 -48t99 -25.5t105.5 -7q71 0 131.5 12t116.5 40.5t88 83.5t32 133v49q0 62 -22 109.5t-57 76.5t-84.5 47t-99 24.5t-105.5 6.5t-105.5 -6.5t-99 -24.5t-85 -47t-57.5 -76.5t-22 -109.5v-49z" />
<glyph unicode="&#x150;" horiz-adv-x="1902" d="M127 651v78q0 347 211.5 515.5t607.5 168.5q400 0 615 -168.5t215 -515.5v-78q0 -348 -215 -517t-615 -169q-396 0 -607.5 169t-211.5 517zM393 649q0 -117 40.5 -203t116 -137t174 -75.5t222.5 -24.5q127 0 227 24.5t177 75.5t118 137t41 203v82q0 117 -41 202.5 t-118 136.5t-177 75t-227 24q-124 0 -222.5 -24t-174 -75t-116 -136.5t-40.5 -202.5v-82zM586 1552l278 486l185 -127l-349 -428zM1069 1561l383 407l147 -168l-436 -336z" />
<glyph unicode="&#x151;" horiz-adv-x="1511" d="M125 442v72q0 106 34 189t92 136t140 87.5t171.5 48.5t193.5 14t193 -14t171 -48.5t139.5 -87.5t92 -136t34.5 -189v-72q0 -107 -34.5 -190.5t-92 -136.5t-139.5 -87.5t-171 -48.5t-193 -14t-193.5 14t-171.5 48.5t-140 87.5t-92 136.5t-34 190.5zM387 455q0 -63 22 -111 t57.5 -77.5t85 -48t99 -25.5t105.5 -7q71 0 131.5 12t116.5 40.5t88 83.5t32 133v49q0 62 -22 109.5t-57 76.5t-84.5 47t-99 24.5t-105.5 6.5t-105.5 -6.5t-99 -24.5t-85 -47t-57.5 -76.5t-22 -109.5v-49zM391 1130l279 486l184 -127l-348 -428zM874 1139l383 407l148 -168 l-436 -336z" />
<glyph unicode="&#x152;" horiz-adv-x="2934" d="M127 651v78q0 348 212 517t615 169q352 0 547 -158v121h1319v-237h-1055v-332h846v-209h-846v-360h1065v-240h-1329v119q-195 -158 -547 -158q-403 0 -615 170t-212 520zM393 649q0 -117 40.5 -203.5t116 -138.5t176 -77t228.5 -25q119 0 216 25t172.5 77t117 139 t41.5 203v82q0 116 -41.5 202.5t-117 137.5t-172 75.5t-216.5 24.5q-128 0 -228.5 -24.5t-176 -75.5t-116 -137t-40.5 -203v-82z" />
<glyph unicode="&#x153;" horiz-adv-x="2398" d="M125 442v72q0 106 34 189t92 136t140 87.5t171.5 48.5t193.5 14q332 0 493 -141q153 141 471 141q65 0 123.5 -6t118.5 -21t109.5 -38.5t93.5 -60.5t74 -84t47.5 -111.5t17.5 -141.5v-155h-909q42 -185 323 -185q156 0 250.5 24t155.5 85l168 -145q-95 -98 -235 -141.5 t-339 -43.5q-319 0 -469 141q-161 -141 -493 -141q-104 0 -193.5 14t-171.5 48.5t-140 87.5t-92 136.5t-34 190.5zM387 455q0 -63 22 -111t57.5 -77.5t85 -48t99 -25.5t105.5 -7q71 0 131.5 12t116.5 40.5t88 83.5t32 133v49q0 62 -22 109.5t-57 76.5t-84.5 47t-99 24.5 t-105.5 6.5t-105.5 -6.5t-99 -24.5t-85 -47t-57.5 -76.5t-22 -109.5v-49zM1386 535h656q-5 233 -322 233q-329 0 -334 -233z" />
<glyph unicode="&#x154;" horiz-adv-x="1693" d="M217 0v1378h854q262 0 391 -102t129 -342q0 -178 -83 -293t-242 -158l372 -483h-311l-346 461h-506v-461h-258zM475 692h576q129 0 201.5 60.5t72.5 181.5q0 116 -69.5 161.5t-204.5 45.5h-576v-449zM705 1585l407 387l131 -182l-450 -311z" />
<glyph unicode="&#x155;" horiz-adv-x="1114" d="M207 0v956h242v-149q56 92 150.5 137t205.5 45q182 0 305 -104l-129 -189q-106 76 -227 76q-97 0 -172 -47.5t-113 -134.5v-590h-262zM420 1163l407 387l131 -182l-450 -311z" />
<glyph unicode="&#x156;" horiz-adv-x="1693" d="M217 0v1378h854q262 0 391 -102t129 -342q0 -178 -83 -293t-242 -158l372 -483h-311l-346 461h-506v-461h-258zM475 692h576q129 0 201.5 60.5t72.5 181.5q0 116 -69.5 161.5t-204.5 45.5h-576v-449zM594 -584l18 138q100 -15 168 -15t109 20.5t58.5 52t17.5 79.5 q0 55 -39 86q-7 -109 -142 -109q-64 0 -103.5 27.5t-39.5 81.5q0 60 46 95.5t140 35.5q137 0 217 -62t80 -172q0 -159 -138.5 -225.5t-391.5 -32.5z" />
<glyph unicode="&#x157;" horiz-adv-x="1114" d="M113 -584l18 138q192 -32 272 3.5t80 133.5q0 55 -39 86q-7 -109 -141 -109q-64 0 -103.5 27.5t-39.5 81.5q0 60 46 95.5t140 35.5q137 0 217 -62t80 -172q0 -159 -138.5 -225.5t-391.5 -32.5zM207 0v956h242v-149q56 92 150.5 137t205.5 45q182 0 305 -104l-129 -189 q-106 76 -227 76q-97 0 -172 -47.5t-113 -134.5v-590h-262z" />
<glyph unicode="&#x158;" horiz-adv-x="1693" d="M217 0v1378h854q262 0 391 -102t129 -342q0 -178 -83 -293t-242 -158l372 -483h-311l-346 461h-506v-461h-258zM395 1868l88 104l359 -268l360 268l88 -104l-375 -389h-145zM475 692h576q129 0 201.5 60.5t72.5 181.5q0 116 -69.5 161.5t-204.5 45.5h-576v-449z" />
<glyph unicode="&#x159;" horiz-adv-x="1114" d="M111 1446l88 104l358 -268l361 268l88 -104l-375 -389h-146zM207 0v956h242v-149q56 92 150.5 137t205.5 45q182 0 305 -104l-129 -189q-106 76 -227 76q-97 0 -172 -47.5t-113 -134.5v-590h-262z" />
<glyph unicode="&#x15a;" horiz-adv-x="1757" d="M102 211l123 217q122 -111 284 -168t406 -57q222 0 344.5 51.5t122.5 144.5q0 77 -62 113t-216 51l-442 37q-517 42 -517 395q0 418 719 418q220 0 406.5 -46t361.5 -165l-102 -221q-139 102 -305 149.5t-381 47.5q-158 0 -254 -20.5t-137 -58.5t-41 -98q0 -76 70 -114 t239 -53l356 -33q294 -21 432 -106t138 -275q0 -119 -53.5 -208t-152 -142t-226.5 -79t-287 -26q-295 0 -486.5 56t-339.5 190zM741 1585l408 387l131 -182l-451 -311z" />
<glyph unicode="&#x15b;" horiz-adv-x="1337" d="M92 102l55 191q72 -66 207.5 -101.5t296.5 -35.5q326 0 326 133q0 49 -37.5 73t-114.5 27l-331 12q-204 7 -297 79.5t-93 191.5q0 164 146.5 240.5t406.5 76.5q180 0 314.5 -28.5t238.5 -100.5l-98 -172q-136 109 -446 109q-135 0 -222.5 -28.5t-87.5 -88.5 q0 -52 45 -74.5t129 -27.5l342 -17q180 -8 267.5 -68t87.5 -196q0 -332 -584 -332q-369 0 -551 137zM532 1163l408 387l131 -182l-450 -311z" />
<glyph unicode="&#x15e;" horiz-adv-x="1757" d="M102 211l123 217q122 -111 284 -168t406 -57q222 0 344.5 51.5t122.5 144.5q0 77 -62 113t-216 51l-442 37q-517 42 -517 395q0 418 719 418q220 0 406.5 -46t361.5 -165l-102 -221q-139 102 -305 149.5t-381 47.5q-158 0 -254 -20.5t-137 -58.5t-41 -98q0 -76 70 -114 t239 -53l356 -33q294 -21 432 -106t138 -275q0 -119 -53.5 -208t-152 -142t-226.5 -79t-287 -26h-17l-10 -51q152 6 225.5 -34t73.5 -132q0 -172 -309 -172q-81 0 -139 9.5t-78 19.5l26 119q68 -25 162 -25q158 0 158 57q0 32 -58.5 44.5t-197.5 6.5l27 160q-234 12 -397 69 t-292 175z" />
<glyph unicode="&#x15f;" horiz-adv-x="1337" d="M92 102l55 191q72 -66 207.5 -101.5t296.5 -35.5q326 0 326 133q0 49 -37.5 73t-114.5 27l-331 12q-204 7 -297 79.5t-93 191.5q0 164 146.5 240.5t406.5 76.5q180 0 314.5 -28.5t238.5 -100.5l-98 -172q-136 109 -446 109q-135 0 -222.5 -28.5t-87.5 -88.5 q0 -52 45 -74.5t129 -27.5l342 -17q180 -8 267.5 -68t87.5 -196q0 -315 -520 -330l-15 -61q152 6 225.5 -34t73.5 -132q0 -172 -293 -172q-85 0 -149.5 9.5t-83.5 19.5l27 118q65 -24 176 -24q143 0 143 57q0 32 -58.5 44.5t-197.5 6.5l29 166q-325 10 -492 137z" />
<glyph unicode="&#x160;" horiz-adv-x="1757" d="M102 211l123 217q122 -111 284 -168t406 -57q222 0 344.5 51.5t122.5 144.5q0 77 -62 113t-216 51l-442 37q-517 42 -517 395q0 418 719 418q220 0 406.5 -46t361.5 -165l-102 -221q-139 102 -305 149.5t-381 47.5q-158 0 -254 -20.5t-137 -58.5t-41 -98q0 -76 70 -114 t239 -53l356 -33q294 -21 432 -106t138 -275q0 -119 -53.5 -208t-152 -142t-226.5 -79t-287 -26q-295 0 -486.5 56t-339.5 190zM432 1868l88 104l359 -268l360 268l88 -104l-375 -389h-145z" />
<glyph unicode="&#x161;" horiz-adv-x="1337" d="M92 102l55 191q72 -66 207.5 -101.5t296.5 -35.5q326 0 326 133q0 49 -37.5 73t-114.5 27l-331 12q-204 7 -297 79.5t-93 191.5q0 164 146.5 240.5t406.5 76.5q180 0 314.5 -28.5t238.5 -100.5l-98 -172q-136 109 -446 109q-135 0 -222.5 -28.5t-87.5 -88.5 q0 -52 45 -74.5t129 -27.5l342 -17q180 -8 267.5 -68t87.5 -196q0 -332 -584 -332q-369 0 -551 137zM223 1446l88 104l359 -268l360 268l88 -104l-375 -389h-145z" />
<glyph unicode="&#x162;" horiz-adv-x="1550" d="M57 1141v237h1436v-237h-584v-1141h-92l-18 -86q152 6 225.5 -34t73.5 -132q0 -172 -310 -172q-81 0 -139 9.5t-78 19.5l27 119q68 -25 162 -25q158 0 158 57q0 32 -58.5 44.5t-197.5 6.5l32 193h-51v1141h-586z" />
<glyph unicode="&#x163;" horiz-adv-x="1312" d="M113 745v211h153v252h264v-252h656v-211h-656v-249q0 -75 15.5 -132t40.5 -90.5t62 -54t74.5 -28t84.5 -7.5q197 0 367 88l88 -200q-78 -51 -200 -79t-263 -28h-45l-17 -67q152 6 225.5 -34t73.5 -132q0 -172 -293 -172q-86 0 -150 9.5t-83 18.5l27 119q65 -24 176 -24 q143 0 143 57q0 32 -58.5 44.5t-197.5 6.5l31 186q-85 13 -149 44.5t-114 88t-76 148.5t-26 217v270h-153z" />
<glyph unicode="&#x164;" horiz-adv-x="1550" d="M57 1141v237h1436v-237h-584v-1141h-266v1141h-586zM330 1868l88 104l358 -268l361 268l88 -104l-375 -389h-145z" />
<glyph unicode="&#x165;" horiz-adv-x="1312" d="M113 745v211h153v252h264v-252h656v-211h-656v-249q0 -75 15.5 -132t40.5 -90.5t62 -54t74.5 -28t84.5 -7.5q197 0 367 88l88 -200q-78 -51 -200 -79t-263 -28q-69 0 -126 6t-113.5 21t-99.5 40t-80.5 64.5t-62 92t-38 125t-13.5 161.5v270h-153zM760 1049l35 577 l221 -39l-121 -557z" />
<glyph unicode="&#x166;" horiz-adv-x="1550" d="M57 1141v237h1436v-237h-584v-336h434v-211h-434v-594h-266v594h-436v211h436v336h-586z" />
<glyph unicode="&#x167;" horiz-adv-x="1312" d="M113 457v125h153v202h-153v172h153v252h264v-252h656v-172h-656v-202h603v-125h-601q3 -66 20.5 -115.5t43 -79t63 -47.5t76.5 -24.5t88 -6.5q208 0 377 76l64 -209q-83 -39 -207.5 -62.5t-257.5 -23.5q-80 0 -144.5 8.5t-126.5 28.5t-107.5 56.5t-80.5 89.5t-54 131 t-20 178h-153z" />
<glyph unicode="&#x16a;" d="M164 678v700h266v-702q0 -127 32.5 -218.5t94 -145t143.5 -78.5t189 -25q100 0 179 25t140 78.5t94 145.5t33 218v702h267v-700q0 -713 -713 -713q-725 0 -725 713zM393 1624v211h981v-211h-981z" />
<glyph unicode="&#x16b;" horiz-adv-x="1548" d="M193 387v567h262v-501q0 -62 16.5 -109t43 -74.5t64.5 -44t75.5 -22.5t82.5 -6q112 0 202.5 37t147.5 94v626h263v-956h-242v123q-76 -73 -195 -114.5t-266 -41.5q-454 0 -454 422zM283 1202v211h981v-211h-981z" />
<glyph unicode="&#x16e;" d="M164 678v700h266v-702q0 -127 32.5 -218.5t94 -145t143.5 -78.5t189 -25q100 0 179 25t140 78.5t94 145.5t33 218v702h267v-700q0 -713 -713 -713q-725 0 -725 713zM453 1739v14q0 123 104 192.5t328 69.5q426 0 426 -262v-14q0 -262 -426 -262q-432 0 -432 262z M645 1741q0 -49 58.5 -77t181.5 -28q235 0 235 105v10q0 102 -235 102q-240 0 -240 -102v-10z" />
<glyph unicode="&#x16f;" horiz-adv-x="1548" d="M193 387v567h262v-501q0 -62 16.5 -109t43 -74.5t64.5 -44t75.5 -22.5t82.5 -6q112 0 202.5 37t147.5 94v626h263v-956h-242v123q-76 -73 -195 -114.5t-266 -41.5q-454 0 -454 422zM342 1339v15q0 120 110 191t322 71q211 0 318.5 -71t107.5 -191v-15q0 -122 -107.5 -193 t-318.5 -71q-212 0 -322 71.5t-110 192.5zM535 1341q0 -104 239 -104q236 0 236 104v11q0 102 -236 102q-239 0 -239 -102v-11z" />
<glyph unicode="&#x170;" d="M164 678v700h266v-702q0 -127 32.5 -218.5t94 -145t143.5 -78.5t189 -25q100 0 179 25t140 78.5t94 145.5t33 218v702h267v-700q0 -713 -713 -713q-725 0 -725 713zM520 1552l279 486l184 -127l-348 -428zM1004 1561l382 407l148 -168l-436 -336z" />
<glyph unicode="&#x171;" horiz-adv-x="1548" d="M193 387v567h262v-501q0 -62 16.5 -109t43 -74.5t64.5 -44t75.5 -22.5t82.5 -6q112 0 202.5 37t147.5 94v626h263v-956h-242v123q-76 -73 -195 -114.5t-266 -41.5q-454 0 -454 422zM410 1130l278 486l184 -127l-348 -428zM893 1139l383 407l147 -168l-436 -336z" />
<glyph unicode="&#x172;" d="M164 678v700h266v-702q0 -127 32.5 -218.5t94 -145t143.5 -78.5t189 -25q100 0 179 25t140 78.5t94 145.5t33 218v702h267v-700q0 -603 -508 -696q-90 -34 -139.5 -76.5t-49.5 -85.5q0 -64 109 -64q91 0 172 27l10 -160q-121 -29 -233 -29q-139 0 -202 44t-63 133 q0 112 119 196q-653 37 -653 711z" />
<glyph unicode="&#x173;" horiz-adv-x="1548" d="M193 387v567h262v-501q0 -62 16.5 -109t43 -74.5t64.5 -44t75.5 -22.5t82.5 -6q112 0 202.5 37t147.5 94v626h263v-880h4l41 -54q-9 -2 -24.5 -7t-20.5 -7v-8h-25q-123 -42 -185.5 -85t-62.5 -95q0 -60 109 -60q91 0 172 27l10 -160q-97 -31 -233 -31q-138 0 -201.5 44.5 t-63.5 132.5q0 155 238 243v107q-76 -73 -195 -114.5t-266 -41.5q-454 0 -454 422z" />
<glyph unicode="&#x174;" horiz-adv-x="2531" d="M80 1378h301l352 -1059l367 1059h321l369 -1063l358 1063h301l-518 -1384h-278l-393 1067l-392 -1067h-274zM823 1585l375 387h145l375 -387l-88 -106l-360 268l-359 -268z" />
<glyph unicode="&#x175;" horiz-adv-x="2080" d="M29 956h323l246 -696l274 696h336l271 -696l250 696h323l-426 -956h-319l-271 692l-284 -692h-303zM596 1163l375 387h145l375 -387l-88 -106l-361 268l-358 -268z" />
<glyph unicode="&#x176;" horiz-adv-x="1691" d="M31 1378h311l506 -653l500 653h313l-680 -872v-506h-264v510zM399 1585l375 387h146l374 -387l-88 -106l-360 268l-359 -268z" />
<glyph unicode="&#x177;" horiz-adv-x="1439" d="M29 956h323l359 -729l376 729h324l-756 -1349h-278l198 360zM274 1163l375 387h146l374 -387l-88 -106l-360 268l-359 -268z" />
<glyph unicode="&#x178;" horiz-adv-x="1691" d="M31 1378h311l506 -653l500 653h313l-680 -872v-506h-264v510zM412 1718q0 74 41.5 113t119.5 39q77 0 121.5 -39.5t44.5 -112.5q0 -77 -44.5 -119.5t-121.5 -42.5q-78 0 -119.5 42t-41.5 120zM954 1718q0 73 42.5 112.5t119.5 39.5t121.5 -39.5t44.5 -112.5 q0 -77 -44.5 -119.5t-121.5 -42.5t-119.5 42t-42.5 120z" />
<glyph unicode="&#x179;" horiz-adv-x="1583" d="M80 1141v237h1401v-211l-944 -929h976v-238h-1388v203l954 938h-999zM649 1585l408 387l131 -182l-451 -311z" />
<glyph unicode="&#x17a;" horiz-adv-x="1249" d="M104 745v211h1061v-208l-647 -537h668v-211h-1073v203l649 542h-658zM489 1163l408 387l131 -182l-450 -311z" />
<glyph unicode="&#x17b;" horiz-adv-x="1583" d="M80 1141v237h1401v-211l-944 -929h976v-238h-1388v203l954 938h-999zM623 1720q0 73 41 111.5t118 38.5q79 0 123.5 -38.5t44.5 -111.5q0 -77 -44.5 -119t-123.5 -42q-77 0 -118 41.5t-41 119.5z" />
<glyph unicode="&#x17c;" horiz-adv-x="1249" d="M104 745v211h1061v-208l-647 -537h668v-211h-1073v203l649 542h-658zM463 1298q0 73 41.5 111.5t118.5 38.5q79 0 123.5 -38.5t44.5 -111.5q0 -77 -44.5 -119t-123.5 -42q-77 0 -118.5 41.5t-41.5 119.5z" />
<glyph unicode="&#x17d;" horiz-adv-x="1583" d="M80 1141v237h1401v-211l-944 -929h976v-238h-1388v203l954 938h-999zM340 1868l88 104l358 -268l361 268l88 -104l-375 -389h-145z" />
<glyph unicode="&#x17e;" horiz-adv-x="1249" d="M104 745v211h1061v-208l-647 -537h668v-211h-1073v203l649 542h-658zM180 1446l88 104l359 -268l360 268l88 -104l-375 -389h-145z" />
<glyph unicode="&#x2000;" horiz-adv-x="1062" />
<glyph unicode="&#x2001;" horiz-adv-x="2124" />
<glyph unicode="&#x2002;" horiz-adv-x="1062" />
<glyph unicode="&#x2003;" horiz-adv-x="2124" />
<glyph unicode="&#x2004;" horiz-adv-x="708" />
<glyph unicode="&#x2005;" horiz-adv-x="531" />
<glyph unicode="&#x2006;" horiz-adv-x="354" />
<glyph unicode="&#x2007;" horiz-adv-x="354" />
<glyph unicode="&#x2008;" horiz-adv-x="265" />
<glyph unicode="&#x2009;" horiz-adv-x="424" />
<glyph unicode="&#x200a;" horiz-adv-x="118" />
<glyph unicode="&#x2010;" horiz-adv-x="1249" d="M117 494v211h1016v-211h-1016z" />
<glyph unicode="&#x2011;" horiz-adv-x="1249" d="M117 494v211h1016v-211h-1016z" />
<glyph unicode="&#x2012;" horiz-adv-x="1249" d="M117 494v211h1016v-211h-1016z" />
<glyph unicode="&#x2013;" horiz-adv-x="1517" d="M117 494v211h1284v-211h-1284z" />
<glyph unicode="&#x2014;" horiz-adv-x="2015" d="M117 494v211h1781v-211h-1781z" />
<glyph unicode="&#x2018;" horiz-adv-x="565" d="M29 1210q0 83 30.5 149.5t91 113.5t159 67t225.5 6l-19 -160q-151 23 -238.5 -27t-87.5 -145q0 -48 27 -86q32 66 127 66q67 0 105 -31.5t38 -95.5q0 -71 -46.5 -109t-133.5 -38q-124 0 -201 72.5t-77 217.5z" />
<glyph unicode="&#x2019;" horiz-adv-x="565" d="M31 926l18 159q151 -23 238.5 27t87.5 145q0 50 -29 86q-29 -65 -127 -65q-66 0 -104.5 31.5t-38.5 95.5q0 71 47 109t135 38q123 0 200 -72.5t77 -217.5q0 -83 -30.5 -149.5t-90.5 -113.5t-158 -66.5t-225 -6.5z" />
<glyph unicode="&#x201a;" horiz-adv-x="1228" d="M-33 -385l19 160q186 -17 291.5 35.5t105.5 160.5q0 47 -27 84q-29 -75 -139 -75q-64 0 -103.5 35t-39.5 104q0 76 49.5 118t140.5 42q125 0 203 -76t78 -228q0 -185 -146 -286.5t-432 -73.5z" />
<glyph unicode="&#x201c;" horiz-adv-x="1093" d="M29 1210q0 83 30.5 149.5t91 113.5t159 67t225.5 6l-19 -160q-151 23 -238.5 -27t-87.5 -145q0 -48 27 -86q32 66 127 66q67 0 105 -31.5t38 -95.5q0 -71 -46.5 -109t-133.5 -38q-124 0 -201 72.5t-77 217.5zM557 1210q0 83 30.5 149.5t91 113.5t159 67t225.5 6l-19 -160 q-151 23 -238 -27t-87 -145q0 -50 26 -86q32 66 127 66q67 0 105.5 -31.5t38.5 -95.5q0 -71 -46.5 -109t-133.5 -38q-125 0 -202 72.5t-77 217.5z" />
<glyph unicode="&#x201d;" horiz-adv-x="1093" d="M31 926l18 159q151 -23 238.5 27t87.5 145q0 49 -27 86q-32 -65 -127 -65q-67 0 -105 31.5t-38 95.5q0 71 46.5 109t133.5 38q125 0 202 -72.5t77 -217.5q0 -83 -30.5 -149.5t-91 -113.5t-159 -67t-225.5 -6zM559 926l19 159q151 -23 238 27t87 145q0 50 -26 86 q-32 -65 -127 -65q-67 0 -105.5 31.5t-38.5 95.5q0 71 46.5 109t133.5 38q125 0 202 -72.5t77 -217.5q0 -83 -30.5 -149.5t-91 -113.5t-159 -67t-225.5 -6z" />
<glyph unicode="&#x201e;" horiz-adv-x="552" d="M-33 -385l19 160q186 -17 291.5 35.5t105.5 160.5q0 47 -27 84q-29 -75 -139 -75q-64 0 -103.5 35t-39.5 104q0 76 49.5 118t140.5 42q125 0 203 -76t78 -228q0 -185 -146 -286.5t-432 -73.5z" />
<glyph unicode="&#x2026;" horiz-adv-x="1228" />
<glyph unicode="&#x202f;" horiz-adv-x="424" />
<glyph unicode="&#x2039;" horiz-adv-x="940" d="M45 387v201l756 373l55 -222l-598 -258l598 -245l-55 -220z" />
<glyph unicode="&#x203a;" horiz-adv-x="935" d="M84 236l598 245l-598 258l55 222l756 -373v-201l-756 -371z" />
<glyph unicode="&#x205f;" horiz-adv-x="531" />
<glyph unicode="&#x20ac;" horiz-adv-x="1769" d="M35 463v186h121v2v78v14h-121v189h141q107 481 764 481q247 0 424.5 -61.5t316.5 -212.5l-155 -209q-97 121 -236 180t-350 59q-385 0 -483 -237h772v-189h-807v-12v-82h807v-186h-778q92 -254 489 -254q229 0 359 56.5t249 193.5l156 -189q-130 -167 -319.5 -236 t-469.5 -69q-311 0 -501 123t-240 375h-139z" />
<glyph unicode="&#x2122;" horiz-adv-x="3119" d="M104 1141v237h1172v-237h-453v-613h-264v613h-455zM1464 528v850h293l416 -504l424 504h293v-850h-254v527l-365 -437h-198l-355 435v-525h-254z" />
<glyph unicode="&#x25fc;" horiz-adv-x="952" d="M0 0v952h952v-952h-952z" />
</font>
</defs>
</svg>
